<svg width="12" height="16" viewBox="0 0 12 16" fill="none" xmlns="http://www.w3.org/2000/svg">
<path d="M0.75 13.3336C0.75 11.5238 2.02299 9.98221 3.75303 9.69699L3.90886 9.6713C5.29419 9.4429 6.70581 9.4429 8.09113 9.6713L8.24697 9.69699C9.97701 9.98221 11.25 11.5238 11.25 13.3336C11.25 14.1159 10.6361 14.75 9.8789 14.75H2.1211C1.36386 14.75 0.75 14.1159 0.75 13.3336Z" stroke="white" stroke-width="1.125"/>
<path d="M9.06251 4.20312C9.06251 5.83409 7.69139 7.15625 6.00002 7.15625C4.30864 7.15625 2.93752 5.83409 2.93752 4.20312C2.93752 2.57216 4.30864 1.25 6.00002 1.25C7.69139 1.25 9.06251 2.57216 9.06251 4.20312Z" stroke="white" stroke-width="1.125"/>
</svg>
