<svg width="20" height="20" viewBox="0 0 20 20" fill="none" xmlns="http://www.w3.org/2000/svg">
<path d="M3.14651 7.68868C3.71018 5.23643 5.54739 3.33115 7.88882 2.77067L8.07469 2.72618C9.33452 2.42461 10.6428 2.42461 11.9026 2.72618L12.2202 2.8022C14.4809 3.34337 16.2548 5.18298 16.7991 7.55073L16.8731 7.87284C17.1535 9.09272 17.1535 10.3652 16.8731 11.5851C16.3085 14.0416 14.2158 15.7723 11.8102 15.7723H10.9257C10.6352 15.7723 10.3723 15.9596 10.262 16.2418C9.86082 17.2673 8.74095 17.7707 7.76336 17.3528L7.66489 17.3107C5.40582 16.3448 3.72181 14.2721 3.14933 11.7815C2.84111 10.4406 2.83829 9.0296 3.14651 7.68868Z" fill="white" fill-opacity="0.15"/>
<path d="M7.24698 7.54828H12.2734M7.24698 10.4284H10.4456M10.9257 15.7723H11.8102C14.2158 15.7723 16.3085 14.0416 16.8731 11.5851C17.1535 10.3652 17.1535 9.09272 16.8731 7.87284L16.7991 7.55073C16.2548 5.18298 14.4809 3.34337 12.2202 2.8022L11.9026 2.72618C10.6428 2.42461 9.33452 2.42461 8.07469 2.72618L7.88882 2.77067C5.54739 3.33115 3.71018 5.23643 3.14651 7.68868C2.83829 9.0296 2.84111 10.4406 3.14933 11.7815C3.72181 14.2721 5.40582 16.3448 7.66489 17.3107L7.76336 17.3528C8.74095 17.7707 9.86082 17.2673 10.262 16.2418C10.3723 15.9596 10.6352 15.7723 10.9257 15.7723Z" stroke="#505270" stroke-width="2" stroke-linecap="round"/>
</svg>
