<svg viewBox="0 0 16 16" fill="none" xmlns="http://www.w3.org/2000/svg">
<path d="M9.80001 4.4V6.2H8.60002C7.28002 6.2 6.19999 7.28 6.19999 8.6V9.8H4.39998C3.07998 9.8 2 8.72 2 7.4V4.4C2 3.08 3.07998 2 4.39998 2H7.39998C8.71998 2 9.80001 3.08 9.80001 4.4Z" stroke="inherit" stroke-width="2"/>
<path d="M11.6 6.19995H8.60002C7.27454 6.19995 6.2 7.27446 6.2 8.59994V11.5999C6.2 12.9254 7.27454 13.9999 8.60002 13.9999H11.6C12.9255 13.9999 14 12.9254 14 11.5999V8.59994C14 7.27446 12.9255 6.19995 11.6 6.19995Z" stroke="inherit" stroke-width="2"/>
<defs>
<rect width="16" height="16" fill="white"/>
</defs>
</svg>
