<svg width="24" height="24" viewBox="0 0 24 24" fill="none" xmlns="http://www.w3.org/2000/svg">
<g clip-path="url(#clip0_345_611)">
<path d="M18.0098 19.4501V21.0001H6.00977V19.4501C6.00977 19.0301 6.13976 18.6202 6.38976 18.2802C6.63976 17.9402 6.97976 17.6901 7.37976 17.5501C10.3898 16.5601 13.6298 16.5601 
16.6498 17.5501C17.0498 17.6801 17.3898 17.9402 17.6398 18.2802C17.8898 18.6202 18.0298 19.0301 18.0298 19.4501H18.0098Z" stroke="white" stroke-width="2" stroke-linejoin="round"/>
<path d="M15.0098 13.25C14.0898 13.78 13.0598 14.06 11.9998 14.06C10.9398 14.06 9.90976 13.78 8.98976 13.25C8.22976 12.81 7.60976 12.18 7.16976 11.42C6.72976 10.66 6.50977 9.79999 
6.50977 8.92999V3H17.5098V8.92999C17.5098 9.79999 17.2698 10.66 16.8398 11.42C16.3998 12.18 15.7798 12.81 15.0198 13.25H15.0098Z" stroke="white" stroke-width="2" stroke-linejoin="round"/>
<path d="M12 14.0701V16.8" stroke="white" stroke-width="2" stroke-miterlimit="10"/>
<path d="M6.51 5H3V8.58002C3 9.27002 3.24 9.92997 3.66 10.47C4.1 11 4.69 11.38 5.37 11.52L7.62 12" stroke="white" stroke-width="2" stroke-linejoin="round"/>
<path d="M17.4996 5H20.9996V8.58002C20.9996 9.26002 20.7596 9.93002 20.3396 10.46C19.9096 10.99 19.3196 11.37 18.6396 11.51L16.3896 11.99" stroke="white" stroke-width="2" stroke-linejoin="round"/>
</g>
<defs>
<clipPath id="clip0_345_611">
<rect width="24" height="24" fill="white"/>
</clipPath>
</defs>
</svg>
