<svg xmlns="http://www.w3.org/2000/svg" viewBox="0 0 24 24" fill="none">
    <path d="M21 15.9998C21 16.9426 21 17.414 20.7071 17.7069C20.4142 17.9998 19.9428 17.9998 19 17.9998L9.14074 17.9998C8.0928 17.9998 7.56884 17.9998 7.12665 17.7632C6.68447 17.5265 6.39382 17.0905 5.81253 16.2186L4.4792 14.2186C3.7622 13.1431 3.4037 12.6054 3.4037 11.9998C3.4037 11.3943 3.7622 10.8565 4.4792 9.78101L5.81254 7.78101C6.39382 6.90908 6.68447 6.47312 7.12665 6.23647C7.56884 5.99982 8.09281 5.99982 9.14074 5.99982L19 5.99982C19.9428 5.99982 20.4142 5.99982 20.7071 6.29271C21 6.5856 21 7.05701 21 7.99982L21 15.9998Z" stroke="transparent" fill="inherit"/>
</svg>
