<svg width="16" height="16" viewBox="0 0 16 16" fill="none" xmlns="http://www.w3.org/2000/svg">
<g clip-path="url(#clip0_285_1293)">
<path d="M9.80001 4.4V6.2H8.60002C7.28002 6.2 6.19999 7.28 6.19999 8.6V9.8H4.39998C3.07998 9.8 2 8.72 2 7.4V4.4C2 3.08 3.07998 2 4.39998 2H7.39998C8.71998 2 9.80001 3.08 9.80001 4.4Z" stroke="#2C64E3" stroke-width="2"/>
<path d="M11.6 6.2002H8.60001C7.27452 6.2002 6.19998 7.27471 6.19998 8.60019V11.6002C6.19998 12.9257 7.27452 14.0002 8.60001 14.0002H11.6C12.9255 14.0002 14 12.9257 14 11.6002V8.60019C14 7.27471 12.9255 6.2002 11.6 6.2002Z" stroke="#2C64E3" stroke-width="2"/>
</g>
<defs>
<clipPath id="clip0_285_1293">
<rect width="16" height="16" fill="white"/>
</clipPath>
</defs>
</svg>
