<svg viewBox="0 0 20 20" fill="none" xmlns="http://www.w3.org/2000/svg">
<path fill-rule="evenodd" clip-rule="evenodd" d="M8.33361 7.27914V5.37295C7.6005 5.38383 6.90255 5.4434 6.52766 5.57586C3.9813 6.47557 2.50004 8.22111 2.50004 10.0009C2.50004 11.5097 3.55153 12.9831 5.44251 13.9588L4.67824 15.44C2.45251 14.2915 0.833374 12.3468 0.833374 10.0009C0.833374 7.22571 3.08115 5.02598 5.97242 4.00441C6.6253 3.77372 7.57658 3.71571 8.33361 3.70603V2.57843C8.33361 2.18389 8.76918 1.94478 9.10205 2.1566L12.431 4.27501C12.6704 4.42738 12.6908 4.76931 12.4711 4.94902L9.15023 7.66612C8.82376 7.93323 8.33361 7.70095 8.33361 7.27914ZM17.5 10.0009C17.5 8.38868 16.294 6.81163 14.159 5.85068L14.8431 4.33087C17.3187 5.44517 19.1667 7.49095 19.1667 10.0009C19.1667 12.657 17.1029 14.789 14.3998 15.8581C13.4584 16.2304 12.4996 16.2508 11.6667 16.2508H11.6667L11.2503 16.2508V17.4216C11.2503 17.8161 10.8147 18.0552 10.4818 17.8434L7.1529 15.725C6.91347 15.5726 6.8931 15.2307 7.11275 15.051L10.4337 12.3339C10.7601 12.0668 11.2503 12.299 11.2503 12.7209V14.5842L11.6667 14.5842H11.6668C12.5005 14.5842 13.1703 14.5521 13.7868 14.3083C16.1462 13.3751 17.5 11.7054 17.5 10.0009Z" stroke="transparent" fill="inherit"/>
</svg>
