<svg xmlns="http://www.w3.org/2000/svg" viewBox="0 0 16 16" fill="none">
    <path d="M2.3912 9.18587C3.57749 10.3652 5.64635 11.9999 8.00012 11.9999C10.3539 11.9999 12.4224 10.3652 13.6086 9.18587C13.9215 8.87484 14.0785 8.71879 14.1781 8.41341C14.2492 8.19552 14.2492 7.80449 14.1781 7.5866C14.0785 7.28121 13.9215 7.12513 13.6086 6.81407C12.4224 5.63472 10.3539 4 8.00012 4C5.64635 4 3.57749 5.63472 2.3912 6.81407C2.07809 7.12535 1.92152 7.2811 1.82186 7.5866C1.75078 7.80449 1.75078 8.19552 1.82186 8.41341C1.92152 8.71891 2.07809 8.87459 2.3912 9.18587Z" fill="transparent" stroke="inherit" stroke-linecap="round" stroke-linejoin="round"/>
    <path d="M6.66667 8C6.66667 8.73638 7.26362 9.33333 8 9.33333C8.73638 9.33333 9.33333 8.73638 9.33333 8C9.33333 7.26362 8.73638 6.66667 8 6.66667C7.26362 6.66667 6.66667 7.26362 6.66667 8Z" fill="transparent" stroke="inherit" stroke-linecap="round" stroke-linejoin="round"/>
</svg>
