<svg xmlns="http://www.w3.org/2000/svg" viewBox="0 0 16 16" fill="none">
    <path d="M2.66659 2.66602L13.3333 13.3327M10.9999 11.1699C10.0982 11.6557 9.079 11.9993 7.99993 11.9993C5.64616 11.9993 3.57749 10.3646 2.3912 9.18522C2.07807 8.87392 1.92152 8.71828 1.82187 8.41276C1.75079 8.19487 1.75077 7.80373 1.82187 7.58584C1.92156 7.28033 2.07842 7.12432 2.39218 6.81246C2.9901 6.21815 3.81201 5.50841 4.78146 4.95052M12.9999 9.75498C13.222 9.5597 13.4253 9.36757 13.6078 9.1862L13.6097 9.18417C13.9221 8.87363 14.0788 8.71794 14.1783 8.41309C14.2494 8.1952 14.2492 7.80391 14.1781 7.58601C14.0785 7.28059 13.9218 7.12451 13.6089 6.81342C12.4226 5.63407 10.3537 3.99935 7.99993 3.99935C7.77493 3.99935 7.55253 4.01429 7.33326 4.04234M8.88187 8.99935C8.64682 9.2068 8.33808 9.33268 7.99993 9.33268C7.26355 9.33268 6.66659 8.73573 6.66659 7.99935C6.66659 7.63968 6.809 7.3134 7.04051 7.07357" fill="transparent" stroke="inherit" stroke-linecap="round" stroke-linejoin="round"/>
</svg>
