<svg viewBox="0 0 24 25" fill="none" xmlns="http://www.w3.org/2000/svg">
<path d="M2.73923 7.36444L7.0141 21.4715C7.14332 21.898 7.59897 22.1337 8.02168 21.9928C8.42744 21.8575 8.6523 21.4243 
8.5294 21.0147L7.49169 17.5556C7.35199 17.09 7.56745 16.5913 8.0023 16.3738L8.77198 15.989C9.74397 15.503 10.8158 15.25 
11.9025 15.25H13.25H17.6342C18.0405 15.25 18.4426 15.1675 18.816 15.0074L19.2474 14.8225C20.6671 14.2141 21.3928 12.6273 
20.9245 11.1555L18.5443 3.67499C18.3804 3.15974 17.8366 2.86812 17.3167 3.01667L14.75 3.75C13.4217 4.08208 12.0576 4.25 
10.6884 4.25H10.25L8.35306 4.01288C6.98176 3.84147 5.5904 4.0798 4.35433 4.69784L3.75885 4.99558C2.88727 5.43137 2.45663 
6.43187 2.73923 7.36444Z" fill="#f0aa46"/>
</svg>
