<svg xmlns="http://www.w3.org/2000/svg" viewBox="0 0 24 25" fill="none">
    <path d="M6 9V1.5C6 1.2643 6 1.14645 6.07322 1.07322C6.14645 1 6.2643 1 6.5 1H10.382C10.6827 1 10.833 1 10.9538 1.07467C11.0747 
    1.14935 11.1419 1.28383 11.2764 1.55279L11.7236 2.44721C11.8581 2.71617 11.9253 2.85065 12.0462 2.92533C12.167 3 12.3173 3 
    12.618 3H17.5C17.7357 3 17.8536 3 17.9268 3.07322C18 3.14645 18 3.2643 18 3.5V10.5C18 10.7357 18 10.8536 17.9268 10.9268C17.8536 
    11 17.7357 11 17.5 11H12.618C12.3173 11 12.167 11 12.0462 10.9253C11.9253 10.8507 11.8581 10.7162 11.7236 10.4472L11.2764 
    9.55279C11.1419 9.28383 11.0747 9.14935 10.9538 9.07467C10.833 9 10.6827 9 10.382 9H6ZM6 9V15" stroke="#F0AB26" stroke-width="2" stroke-linecap="round"/>
</svg>
