<svg width="31" height="31" viewBox="0 0 31 31" fill="none" xmlns="http://www.w3.org/2000/svg">
<circle cx="15.5" cy="15.5" r="14.5" stroke="#3A3F4A" stroke-width="2"/>
<path d="M18.8997 13.6002L19.7619 13.7315L19.867 13.0418L19.2171 12.7879L18.8997 13.6002ZM11.666 16.7696C11.2488 17.0104 11.1059 17.5438 11.3467 17.9609C11.5876 18.3781 12.121 18.521 12.5381 18.2802L11.666 16.7696ZM18.9211 19.2523L19.7619 13.7315L18.0375 13.4689L17.1967 18.9897L18.9211 19.2523ZM19.2171 12.7879L14.0155 10.7557L13.3808 12.3804L18.5823 14.4126L19.2171 12.7879ZM18.4636 12.8449L11.666 16.7696L12.5381 18.2802L19.3358 14.3555L18.4636 12.8449Z" fill="#7784A3"/>
</svg>
