<svg width="20" height="20" viewBox="0 0 20 20" fill="none" xmlns="http://www.w3.org/2000/svg">
<path fill-rule="evenodd" clip-rule="evenodd" d="M8.33324 7.27916V5.37297C7.60013 5.38385 6.90218 5.44342 6.5273 5.57588C3.98094 6.47559 
2.49967 8.22112 2.49967 10.0009C2.49967 11.5097 3.55116 12.9831 5.44214 13.9589L4.67787 15.44C2.45214 14.2915 0.833008 12.3468 0.833008 
10.0009C0.833008 7.22573 3.08078 5.026 5.97205 4.00442C6.62494 3.77374 7.57622 3.71572 8.33324 3.70605V2.57845C8.33324 2.1839 8.76882 
1.9448 9.10168 2.15662L12.4306 4.27503C12.67 4.42739 12.6904 4.76932 12.4708 4.94903L9.14986 7.66614C8.82339 7.93324 8.33324 7.70097 8.33324 
7.27916ZM17.4997 10.0009C17.4997 8.38869 16.2936 6.81164 14.1586 5.85069L14.8427 4.33088C17.3184 5.44519 19.1663 7.49096 19.1663 10.0009C19.1663 
12.657 17.1026 14.7891 14.3994 15.8581C13.458 16.2304 12.4992 16.2509 11.6663 16.2509H11.6663L11.2499 16.2508V17.4216C11.2499 17.8161 10.8143 
18.0552 10.4815 17.8434L7.15254 15.725C6.91311 15.5726 6.89274 15.2307 7.11239 15.051L10.4333 12.3339C10.7598 12.0668 11.2499 12.2991 11.2499 
12.7209V14.5842L11.6663 14.5842H11.6664C12.5002 14.5842 13.17 14.5521 13.7865 14.3083C16.1458 13.3752 17.4997 11.7054 17.4997 10.0009Z" fill="white"/>
</svg>
