<svg width="13" height="12" viewBox="0 0 13 12" fill="none" xmlns="http://www.w3.org/2000/svg">
<path fill-rule="evenodd" clip-rule="evenodd" d="M11.4219 6C11.4219 6.59095 11.3055 7.17611 11.0793 7.72208C10.8532 8.26804 10.5217 8.76412 
10.1039 9.18198C9.68599 9.59984 9.18992 9.93131 8.64395 10.1575C8.09799 10.3836 7.51282 10.5 6.92188 10.5C6.33093 10.5 5.74576 10.3836 5.1998 
10.1575C4.65383 9.93131 4.15776 9.59984 3.73989 9.18198C3.32203 8.76412 2.99056 8.26804 2.76442 7.72208C2.53827 7.17611 2.42187 6.59095 2.42188 
6C2.42188 4.80653 2.89598 3.66193 3.73989 2.81802C4.58381 1.97411 5.7284 1.5 6.92188 1.5C8.11535 1.5 9.25994 1.97411 10.1039 2.81802C10.9478 
3.66193 11.4219 4.80653 11.4219 6ZM6.29688 6.625V9H7.54688V6.625H9.92188V5.375H7.54688V3H6.29688V5.375H3.92188V6.625H6.29688Z" fill="#F0B90B"/>
</svg>
