<svg width="14" height="14" viewBox="0 0 14 14" fill="none" xmlns="http://www.w3.org/2000/svg">
<path d="M1.21049 8.18737L2.18406 7.959L1.21049 8.18737ZM1.21049 4.54933L2.18406 4.7777L2.18406 4.7777L1.21049 4.54933ZM11.5262 4.54934L12.4998 4.32097L12.4998 4.32097L11.5262 4.54934ZM11.5262 8.18737L12.4998 8.41573L11.5262 8.18737ZM8.18737 11.5262L7.959 10.5526L7.959 10.5526L8.18737 11.5262ZM4.54934 11.5262L4.32097 12.4998L4.54934 11.5262ZM4.54933 1.21049L4.32096 0.236911L4.54933 1.21049ZM8.18737 1.21048L8.41574 0.23691L8.18737 1.21048ZM12.2929 13.7071C12.6834 14.0976 13.3166 14.0976 13.7071 13.7071C14.0976 13.3166 14.0976 12.6834 13.7071 12.2929L12.2929 13.7071ZM2.18406 7.959C1.93865 6.91277 1.93865 5.82394 2.18406 4.7777L0.236911 4.32096C-0.0789704 5.66761 -0.0789704 7.06909 0.236911 8.41574L2.18406 7.959ZM10.5526 4.7777C10.7981 5.82394 10.7981 6.91277 10.5526 7.959L12.4998 8.41573C12.8157 7.06909 12.8157 5.66761 12.4998 4.32097L10.5526 4.7777ZM7.959 10.5526C6.91276 10.7981 5.82394 10.7981 4.7777 10.5526L4.32097 12.4998C5.66761 12.8157 7.06909 12.8157 8.41573 12.4998L7.959 10.5526ZM4.7777 2.18406C5.82394 1.93865 6.91277 1.93865 7.959 2.18406L8.41574 0.23691C7.06909 -0.0789703 5.66761 -0.07897 4.32096 0.236911L4.7777 2.18406ZM4.7777 10.5526C3.49078 10.2508 2.48593 9.24593 2.18406 7.959L0.236911 8.41574C0.712252 10.4422 2.29452 12.0245 4.32097 12.4998L4.7777 10.5526ZM8.41573 12.4998C10.4422 12.0245 12.0245 10.4422 12.4998 8.41573L10.5526 7.959C10.2508 9.24593 9.24593 10.2508 7.959 10.5526L8.41573 12.4998ZM7.959 2.18406C9.24592 2.48593 10.2508 3.49078 10.5526 4.7777L12.4998 4.32097C12.0244 2.29452 10.4422 0.712251 8.41574 0.23691L7.959 2.18406ZM4.32096 0.236911C2.29452 0.71225 0.712252 2.29452 0.236911 4.32096L2.18406 4.7777C2.48593 3.49078 3.49078 2.48593 4.7777 2.18406L4.32096 0.236911ZM9.84965 11.2639L12.2929 13.7071L13.7071 12.2929L11.2639 9.84965L9.84965 11.2639Z" fill="#40444A"/>
</svg>
