<svg viewBox="0 0 24 24" fill="none" xmlns="http://www.w3.org/2000/svg">
<path d="M12.333 12.3335V2.3335L3.66635 5.66683V12.3335H12.333V21.6668L16.333 20.3335L19.6663 14.3335L20.333 12.3335H12.333Z" fill="#f0aa46"/>
<path d="M4 11C4 15.9693 7.34659 20.5964 11.8115 21.9138C11.9345 21.9501 12.0655 21.9501 12.1885 21.9138C16.6534 20.5964 20 15.9693 20 11L20 6.29977C20 
5.90458 19.7673 5.54646 19.4061 5.38596L12.4061 2.27483C12.1476 2.15991 11.8524 2.15991 11.5939 2.27483L4.59386 5.38596C4.23273 5.54646 4 5.90458 4 
6.29977V11Z" stroke="#f0aa46" stroke-width="2"/>
</svg>
