<svg width="22" height="22" viewBox="0 0 22 22" fill="none" xmlns="http://www.w3.org/2000/svg">
<g clip-path="url(#clip0_436_1661)">
<path d="M15.5833 2.75H6.41667C4.39162 2.75 2.75 4.39162 2.75 6.41667V15.5833C2.75 17.6084 4.39162 19.25 6.41667 19.25H15.5833C17.6084 19.25 19.25 17.6084 19.25 15.5833V6.41667C19.25 4.39162 17.6084 2.75 15.5833 2.75Z" stroke="#2C64E3" stroke-width="2.0625" stroke-linecap="round" stroke-linejoin="round"/>
<path d="M2.76855 7.7002H19.2502" stroke="#2C64E3" stroke-width="2.0625" stroke-linecap="round" stroke-linejoin="round"/>
<path d="M9.27658 2.91504L7.33325 7.70004" stroke="#2C64E3" stroke-width="2.0625" stroke-linecap="round" stroke-linejoin="round"/>
<path d="M14.6667 2.91504L12.7234 7.70004" stroke="#2C64E3" stroke-width="2.0625" stroke-linecap="round" stroke-linejoin="round"/>
<path d="M12.9434 12.5588C13.6492 12.9621 13.6492 13.9796 12.9434 14.383L11.5225 15.1988L10.1017 16.0146C9.39588 16.418 8.51587 15.9138 8.51587 15.098V11.8163C8.51587 11.0005 9.39588 10.4963 10.1017 10.8996L11.5225 11.7155L12.9434 12.5313V12.5588Z" stroke="#2C64E3" stroke-width="2.0625" stroke-linecap="round" stroke-linejoin="round"/>
</g>
<defs>
<clipPath id="clip0_436_1661">
<rect width="22" height="22" fill="white"/>
</clipPath>
</defs>
</svg>
