<svg width="18" height="18" viewBox="0 0 18 18" fill="none" xmlns="http://www.w3.org/2000/svg">
<path d="M9.00879 16.5083C13.1505 16.5083 16.5088 13.15 16.5088 9.0083C16.5088 4.86663 13.1505 1.5083 9.00879 1.5083C4.86712 1.5083 1.50879 4.86663 1.50879 9.0083C1.50879 13.15 4.86712 16.5083 9.00879 16.5083Z" stroke="white" stroke-width="1.5" stroke-linecap="round" stroke-linejoin="round"/>
<path d="M6.93359 10.575C6.93359 11.3833 7.55859 12.0333 8.32526 12.0333H9.89193C10.5586 12.0333 11.1003 11.4667 11.1003 10.7583C11.1003 9.99999 10.7669 9.72499 10.2753 9.54999L7.76693 8.67499C7.27526 8.49999 6.94192 8.23332 6.94192 7.46666C6.94192 6.76666 7.48359 6.19165 8.15025 6.19165H9.71692C10.4836 6.19165 11.1086 6.84165 11.1086 7.64998" stroke="white" stroke-width="1.5" stroke-linecap="round" stroke-linejoin="round"/>
<path d="M9.01758 5.3584V12.8667" stroke="white" stroke-width="1.5" stroke-linecap="round" stroke-linejoin="round"/>
</svg>
