<svg viewBox="0 0 242 54" fill="none" xmlns="http://www.w3.org/2000/svg">
<path d="M53.4124 9.8981H75.7674L80.8597 14.9904V24.9712L78.8228 27.059L82.4383 30.7255V40.0443L76.9386 45.5439H53.4124V9.8981ZM72.2028 24.8184L74.0361 22.9852V17.4856L72.2538 15.7033H60.1851V24.8184H72.2028ZM73.425 39.7388L75.6147 37.5491V32.5587L73.425 30.369H60.1851V39.7388H73.425ZM82.9435 14.8885V11.6295L85.286 9.28703H88.8506L91.193 11.6295V14.8885L88.8506 17.231H85.286L82.9435 14.8885ZM83.7074 20.1845H90.4292V45.5439H83.7074V20.1845ZM94.781 40.3498V25.8369H90.198V20.1845H94.8829V11.935H101.503V20.1845H109.243V25.8878H101.503V38.1602L103.234 39.8406H109.243V45.5439H100.026L94.781 40.3498ZM110.265 9.8981H132.62L137.712 14.9904V24.9712L135.675 27.059L139.291 30.7255V40.0443L133.791 45.5439H110.265V9.8981ZM129.055 24.8184L130.888 22.9852V17.4856L129.106 15.7033H117.037V24.8184H129.055ZM130.277 39.7388L132.467 37.5491V32.5587L130.277 30.369H117.037V39.7388H130.277ZM140.305 40.8591V35.0539L144.99 30.369H157.873V27.1609L156.295 25.5823H148.656L147.129 27.1609V28.5867H140.509V25.6841L145.957 20.1845H159.045L164.493 25.6841V45.5439H158.434V41.9284L154.665 45.5439H144.99L140.305 40.8591ZM154.207 40.3498L157.873 36.8362V35.1557H148.3L146.925 36.5306V39.0768L148.198 40.3498H154.207ZM165.776 20.1845H171.989V24.4111L176.215 20.1845H184.414L190.066 25.8369V45.5439H183.345V27.6701L181.613 25.8878H177.336L172.498 30.7764V45.5439H165.776V20.1845ZM191.329 9.18518H198.051V29.5033H202.481L208.948 20.1845H216.383L207.93 32.4059L216.892 45.5439H209.458L202.328 35.2067H198.051V45.5439H191.329V9.18518Z" fill="black"/>
<path d="M7 2H0V9.5H39V2H32V4H27V0H21V4H18V0H12V4H7V2Z" fill="black"/>
<path fill-rule="evenodd" clip-rule="evenodd" d="M0 12H18V27L15 28L18 29V54C13.5 53 0 46 0 44V12ZM7 17H12V25L7 27V17ZM7 33L12 31V45L7 42V33Z" fill="black"/>
<path fill-rule="evenodd" clip-rule="evenodd" d="M21 12H39V27L36 28L39 29V44.5C34.5 48.5 25 53 21 54V12ZM28 17H33V27L28 25V17ZM28 31L33 33V42L28 45V31Z" fill="black"/>
</svg>
