<svg viewBox="0 0 100 100" fill="none" xmlns="http://www.w3.org/2000/svg">
<rect width="100" height="100" fill="black"/>
<path d="M33.1538 17.6154H24V27.4231H75V17.6154H65.8462V20.2308H59.3077V15H51.4615V20.2308H47.5385V15H39.6923V20.2308H33.1538V17.6154Z" fill="white"/>
<path fill-rule="evenodd" clip-rule="evenodd" d="M24 30.6924H47.5385V50.3078L43.6154 51.6155L47.5385 52.9232V85.6155C41.6538 84.3078 24 75.1539 24 72.5385V30.6924ZM33.1538 37.2308H39.6923V47.6924L33.1538 50.3078V37.2308ZM33.1538 58.1539L39.6923 55.5385V73.8462L33.1538 69.9232V58.1539Z" fill="white"/>
<path fill-rule="evenodd" clip-rule="evenodd" d="M51.4615 30.6924H75V50.3078L71.0769 51.6155L75 52.9232V73.1924C69.1154 78.4232 56.6923 84.3078 51.4615 85.6155V30.6924ZM60.6154 37.2308H67.1539V50.3078L60.6154 47.6924V37.2308ZM60.6154 55.5385L67.1539 58.1539V69.9232L60.6154 73.8462V55.5385Z" fill="white"/>
</svg>
