<svg width="364" height="210" viewBox="0 0 364 210" fill="none" xmlns="http://www.w3.org/2000/svg">
<circle cx="180.534" cy="82.3123" r="66.4831" fill="#2C64E3"/>
<circle cx="180.534" cy="82.3123" r="66.4831" fill="url(#paint0_linear_431_780)"/>
<path d="M174.661 57.9779C172.095 60.4812 166.155 66.19 161.43 70.7386C156.749 75.2568 149.998 81.7593 146.443 85.1784C142.843 88.5975 140.008 91.5283 140.143 91.742C140.728 92.78 146.443 98.0613 146.938 98.0613C147.298 98.0613 151.214 96.1991 155.714 93.94C160.214 91.681 164.13 89.8187 164.445 89.8187C164.985 89.8187 172.951 92.8104 177.361 94.6421C178.216 95.0084 179.251 95.3137 179.611 95.3137C179.971 95.3137 183.437 94.0621 187.352 92.5662C191.267 91.0399 194.778 89.8187 195.138 89.8187C195.498 89.8187 199.503 91.681 204.003 93.94C208.504 96.2295 212.509 98.0307 212.869 98.0002C213.724 97.8781 219.215 92.3525 219.215 91.5893C219.215 91.2841 214.759 86.7354 209.269 81.4845C183.977 57.1842 180.241 53.6735 179.836 53.5819C179.566 53.5209 177.271 55.5052 174.661 57.9779Z" fill="white"/>
<path d="M299.713 81.6667C307.489 81.6667 313.793 75.3628 313.793 67.5862C313.793 59.8096 307.489 53.5057 299.713 53.5057C291.936 53.5057 285.632 59.8096 285.632 67.5862C285.632 75.3628 291.936 81.6667 299.713 81.6667Z" fill="#F3BA2F"/>
<path d="M299.713 62.0747L295.806 65.9812L293.533 63.708L299.713 57.5287L305.894 63.7099L303.621 65.9829L299.713 62.0747Z" fill="white"/>
<path d="M291.928 65.3128L289.655 67.5862L291.928 69.8588L294.201 67.5857L291.928 65.3128Z" fill="white"/>
<path d="M299.713 73.0977L295.806 69.1914L293.53 71.4611L299.713 77.6437L305.894 71.4626L305.895 71.4614L303.621 69.1896L299.713 73.0977Z" fill="white"/>
<path d="M307.497 65.3141L305.224 67.5872L307.497 69.8601L309.77 67.587L307.497 65.3141Z" fill="white"/>
<path d="M302.019 67.585H302.018L302.02 67.5861L302.019 67.5874L299.713 69.8938L297.408 67.5891L297.405 67.5858L297.408 67.5826L299.713 65.2785L302.019 67.585Z" fill="white"/>
<path d="M335.096 139.786C333.215 147.329 325.574 151.92 318.029 150.039C310.488 148.158 305.896 140.517 307.778 132.975C309.658 125.431 317.299 120.84 324.841 122.72C332.386 124.601 336.977 132.242 335.096 139.786Z" fill="#F7931A"/>
<path d="M327.645 134.373C327.925 132.5 326.499 131.492 324.548 130.821L325.181 128.283L323.636 127.898L323.02 130.369C322.614 130.267 322.197 130.172 321.782 130.077L322.403 127.59L320.859 127.205L320.226 129.742C319.889 129.665 319.559 129.59 319.239 129.51L319.241 129.502L317.11 128.97L316.699 130.62C316.699 130.62 317.846 130.883 317.821 130.899C318.447 131.055 318.56 131.47 318.541 131.798L317.82 134.689C317.864 134.7 317.919 134.716 317.981 134.741C317.93 134.728 317.875 134.714 317.818 134.7L316.808 138.75C316.731 138.941 316.537 139.226 316.1 139.117C316.115 139.14 314.977 138.837 314.977 138.837L314.21 140.606L316.22 141.107C316.594 141.2 316.961 141.299 317.321 141.391L316.682 143.958L318.225 144.343L318.858 141.803C319.28 141.918 319.689 142.023 320.09 142.123L319.459 144.651L321.004 145.036L321.643 142.473C324.277 142.972 326.258 142.771 327.092 140.388C327.764 138.47 327.059 137.363 325.673 136.641C326.682 136.409 327.442 135.745 327.645 134.373ZM324.115 139.323C323.638 141.241 320.408 140.204 319.361 139.944L320.209 136.543C321.256 136.805 324.614 137.322 324.115 139.323ZM324.593 134.345C324.158 136.091 321.469 135.204 320.597 134.987L321.366 131.902C322.238 132.119 325.047 132.525 324.593 134.345Z" fill="white"/>
<ellipse cx="74.4252" cy="81.6667" rx="14.0805" ry="14.0805" fill="#26A17B"/>
<path d="M75.98 82.8571V82.8548C75.8815 82.8616 75.3725 82.8909 74.2401 82.8909C73.3345 82.8909 72.6995 82.8661 72.4749 82.8548V82.8571C68.9926 82.7058 66.3953 82.1098 66.3953 81.3942C66.3953 80.6808 68.9949 80.0826 72.4749 79.9313V82.2633C72.7018 82.2791 73.3552 82.3175 74.2561 82.3175C75.3381 82.3175 75.8792 82.2724 75.98 82.2633V79.9336C79.4554 80.0871 82.0459 80.6831 82.0459 81.3965C82.0459 82.1098 79.4531 82.7058 75.98 82.8593V82.8571ZM75.98 79.692V77.6061H80.8286V74.4253H67.6286V77.6061H72.4772V79.692C68.5364 79.8704 65.5746 80.6379 65.5746 81.559C65.5746 82.4801 68.5387 83.2476 72.4772 83.4282V90.1149H75.9823V83.4282C79.9162 83.2499 82.8734 82.4823 82.8734 81.5613C82.8734 80.6425 79.9162 79.8727 75.9823 79.6943" fill="white"/>
<path d="M281.47 124.679C280.16 125.992 278.599 127.028 276.88 127.724C275.162 128.421 273.321 128.764 271.467 128.733C269.624 128.769 267.793 128.428 266.086 127.731C264.38 127.034 262.833 125.995 261.54 124.679C260.218 123.39 259.174 121.841 258.475 120.131C257.775 118.42 257.435 116.583 257.474 114.735C257.474 110.688 258.83 107.317 261.54 104.621C262.834 103.307 264.381 102.27 266.088 101.575C267.795 100.88 269.625 100.54 271.467 100.577C273.32 100.545 275.161 100.887 276.879 101.581C278.598 102.276 280.159 103.31 281.47 104.621C284.243 107.317 285.63 110.688 285.63 114.735C285.666 116.591 285.314 118.434 284.598 120.147C283.882 121.859 282.817 123.403 281.47 124.679Z" fill="#E1E6EA"/>
<path d="M271.552 105L265.92 114.598L271.552 111.968V105Z" fill="#8B8B8B"/>
<path d="M271.552 111.968L265.92 114.598L271.552 118.015V111.968Z" fill="#393939"/>
<path d="M271.552 105V111.968L277.179 114.598L271.552 105Z" fill="#343434"/>
<path d="M271.552 111.968V118.015L277.179 114.598L271.552 111.968Z" fill="#161616"/>
<path d="M265.92 115.693L271.552 123.845V119.113L265.92 115.693Z" fill="#8B8B8B"/>
<path d="M277.184 115.693L271.552 119.113V123.845L277.184 115.693Z" fill="#343434"/>
<circle cx="243.391" cy="161.724" r="14.0805" fill="#1969FF"/>
<path fill-rule="evenodd" clip-rule="evenodd" d="M244.337 152.118C243.746 151.802 243.036 151.802 242.444 152.118L237.833 154.577C237.528 154.806 237.382 155.055 237.366 155.287H237.356V168.134C237.356 168.431 237.52 168.704 237.782 168.844L242.444 171.33C243.036 171.646 243.746 171.646 244.337 171.33L248.999 168.844C249.261 168.704 249.425 168.431 249.425 168.134V155.287H249.416C249.429 155.009 249.287 154.731 248.949 154.577L244.337 152.118ZM248.621 156.172L244.337 158.457C244.306 158.474 244.275 158.489 244.243 158.504L248.621 160.839V156.172ZM248.621 162.609L244.337 164.894C243.746 165.209 243.036 165.209 242.444 164.894L238.161 162.609V168.134L242.823 170.62C243.178 170.81 243.604 170.81 243.959 170.62L248.621 168.134V162.609ZM238.161 160.839L242.539 158.504C242.507 158.489 242.475 158.474 242.444 158.457L238.161 156.172V160.839ZM242.823 152.828C243.178 152.639 243.604 152.639 243.959 152.828L248.57 155.287L243.959 157.747C243.604 157.936 243.178 157.936 242.823 157.747L238.211 155.287L242.823 152.828ZM243.793 164.257V159.176L248.57 161.724L243.959 164.184C243.905 164.212 243.85 164.237 243.793 164.257ZM242.988 159.176V164.257C242.932 164.237 242.877 164.212 242.823 164.184L238.211 161.724L242.988 159.176Z" fill="white"/>
<path d="M249.236 152.734L249.9 153.148C250.606 153.59 251.034 154.363 251.034 155.195V155.69H250.23V155.195C250.23 154.641 249.944 154.125 249.474 153.831L248.81 153.416L249.236 152.734Z" fill="white"/>
<path d="M236.882 170.3L237.545 170.715L237.972 170.032L237.308 169.617C236.837 169.323 236.552 168.808 236.552 168.253V167.759H235.747V168.253C235.747 169.085 236.176 169.859 236.882 170.3Z" fill="white"/>
<path d="M171.782 195.92C179.558 195.92 185.862 189.616 185.862 181.839C185.862 174.062 179.558 167.759 171.782 167.759C164.005 167.759 157.701 174.062 157.701 181.839C157.701 189.616 164.005 195.92 171.782 195.92Z" fill="#E84142"/>
<path fill-rule="evenodd" clip-rule="evenodd" d="M167.792 187.442H165.059C164.485 187.442 164.201 187.442 164.028 187.332C163.841 187.211 163.727 187.01 163.713 186.789C163.703 186.585 163.845 186.335 164.129 185.837L170.876 173.945C171.163 173.44 171.308 173.187 171.491 173.094C171.689 172.993 171.924 172.993 172.121 173.094C172.304 173.187 172.45 173.44 172.737 173.945L174.124 176.366L174.131 176.378C174.441 176.92 174.598 177.195 174.667 177.483C174.743 177.798 174.743 178.13 174.667 178.445C174.598 178.735 174.442 179.012 174.127 179.562L170.583 185.827L170.574 185.843C170.262 186.389 170.104 186.666 169.884 186.875C169.646 187.103 169.359 187.269 169.044 187.363C168.757 187.442 168.435 187.442 167.792 187.442ZM174.692 187.442H178.608C179.186 187.442 179.476 187.442 179.649 187.328C179.836 187.207 179.954 187.003 179.964 186.782C179.974 186.584 179.835 186.345 179.563 185.876C179.554 185.86 179.545 185.844 179.535 185.827L177.574 182.472L177.551 182.434C177.276 181.968 177.137 181.733 176.958 181.642C176.761 181.541 176.529 181.541 176.332 181.642C176.152 181.735 176.007 181.981 175.72 182.475L173.765 185.831L173.759 185.842C173.473 186.336 173.33 186.583 173.34 186.785C173.354 187.007 173.468 187.211 173.655 187.332C173.824 187.442 174.115 187.442 174.692 187.442Z" fill="white"/>
<path d="M29.7702 147.644C37.5468 147.644 43.8506 141.34 43.8506 133.563C43.8506 125.787 37.5468 119.483 29.7702 119.483C21.9935 119.483 15.6897 125.787 15.6897 133.563C15.6897 141.34 21.9935 147.644 29.7702 147.644Z" fill="#863FF8"/>
<path d="M26.4988 125.323C26.0316 125.046 25.4522 125.046 24.9851 125.323L21.2532 127.536C20.7973 127.806 20.5173 128.3 20.5173 128.833V133.276C20.5173 133.81 20.7973 134.303 21.2532 134.574L24.9851 136.787C25.4522 137.064 26.0316 137.064 26.4988 136.787L34.2008 132.219L37.4351 134.137V138.006L34.2008 139.924L30.9665 138.006V135.57L28.9762 136.824V138.293C28.9762 138.826 29.2561 139.32 29.7121 139.59L33.4439 141.804C33.9111 142.081 34.4905 142.081 34.9576 141.804L38.6895 139.59C39.1454 139.32 39.4254 138.826 39.4254 138.293V133.85C39.4254 133.317 39.1454 132.823 38.6895 132.553L34.9576 130.34C34.4905 130.063 33.9111 130.063 33.4439 130.34L25.7419 134.908L22.5077 132.989V129.12L25.7419 127.202L28.9762 129.12V131.556L30.9665 130.302V128.833C30.9665 128.3 30.6866 127.806 30.2306 127.536L26.4988 125.323Z" fill="white"/>
<circle cx="95.3805" cy="144.086" r="14.2056" fill="#E6E6E6"/>
<g clip-path="url(#clip0_431_780)">
<path d="M95.3805 156.871C102.442 156.871 108.166 151.147 108.166 144.086C108.166 137.025 102.442 131.301 95.3805 131.301C88.3195 131.301 82.5955 137.025 82.5955 144.086C82.5955 151.147 88.3195 156.871 95.3805 156.871Z" fill="#F0F0F0"/>
<path d="M94.8247 144.085H108.166C108.166 142.931 108.012 141.813 107.725 140.75H94.8247V144.085Z" fill="#D80027"/>
<path d="M94.8247 137.415H106.289C105.506 136.138 104.506 135.009 103.339 134.08H94.8247V137.415Z" fill="#D80027"/>
<path d="M95.3794 156.87C98.3883 156.87 101.154 155.83 103.338 154.091H87.4209C89.6048 155.83 92.3705 156.87 95.3794 156.87Z" fill="#D80027"/>
<path d="M84.4709 150.756H106.288C106.916 149.731 107.404 148.61 107.724 147.421H83.0348C83.3553 148.61 83.8425 149.731 84.4709 150.756Z" fill="#D80027"/>
<path d="M88.5177 133.297H89.6828L88.5991 134.084L89.0131 135.358L87.9294 134.571L86.8457 135.358L87.2033 134.258C86.2491 135.053 85.4128 135.984 84.7236 137.021H85.0969L84.407 137.523C84.2996 137.702 84.1965 137.884 84.0977 138.069L84.4271 139.083L83.8125 138.636C83.6598 138.96 83.52 139.291 83.3944 139.629L83.7574 140.746H85.0969L84.0132 141.533L84.4271 142.807L83.3434 142.02L82.6943 142.491C82.6293 143.014 82.5955 143.546 82.5955 144.086H95.3805C95.3805 137.025 95.3805 136.192 95.3805 131.301C92.8549 131.301 90.5005 132.033 88.5177 133.297ZM89.0131 142.807L87.9294 142.02L86.8457 142.807L87.2597 141.533L86.1759 140.746H87.5155L87.9294 139.472L88.3433 140.746H89.6828L88.5991 141.533L89.0131 142.807ZM88.5991 137.809L89.0131 139.083L87.9294 138.295L86.8457 139.083L87.2597 137.809L86.1759 137.021H87.5155L87.9294 135.747L88.3433 137.021H89.6828L88.5991 137.809ZM93.599 142.807L92.5153 142.02L91.4316 142.807L91.8456 141.533L90.7619 140.746H92.1014L92.5153 139.472L92.9292 140.746H94.2688L93.185 141.533L93.599 142.807ZM93.185 137.809L93.599 139.083L92.5153 138.295L91.4316 139.083L91.8456 137.809L90.7619 137.021H92.1014L92.5153 135.747L92.9292 137.021H94.2688L93.185 137.809ZM93.185 134.084L93.599 135.358L92.5153 134.571L91.4316 135.358L91.8456 134.084L90.7619 133.297H92.1014L92.5153 132.023L92.9292 133.297H94.2688L93.185 134.084Z" fill="#0052B4"/>
</g>
<defs>
<linearGradient id="paint0_linear_431_780" x1="180.534" y1="15.8291" x2="180.534" y2="148.795" gradientUnits="userSpaceOnUse">
<stop stop-color="#143CAD"/>
<stop offset="1" stop-color="#2FB4FF"/>
</linearGradient>
<clipPath id="clip0_431_780">
<rect x="82.5955" y="131.301" width="25.5701" height="25.5701" rx="12.7851" fill="white"/>
</clipPath>
</defs>
</svg>
