<svg width="40" height="40" viewBox="0 0 40 30" fill="none" xmlns="http://www.w3.org/2000/svg">
<path d="M13.8182 15.7668C13.3708 15.7668 13.0068 15.4027 13.0068 14.9555C13.0068 14.5081 13.3708 14.144 13.8182 14.144C14.2658 14.144 14.6296 14.5081 14.6296 14.9555C14.6296 15.4027 14.2658 15.7668 13.8182 15.7668Z" fill="white"/>
<path d="M16.4355 15.7668C15.988 15.7668 15.624 15.4027 15.624 14.9555C15.624 14.5081 15.988 14.144 16.4355 14.144C16.8828 14.144 17.2469 14.5081 17.2469 14.9555C17.2469 15.4027 16.8828 15.7668 16.4355 15.7668Z" fill="white"/>
<path d="M19.1649 15.7668C18.7175 15.7668 18.3535 15.4027 18.3535 14.9555C18.3535 14.5081 18.7175 14.144 19.1649 14.144C19.6123 14.144 19.9764 14.5081 19.9764 14.9555C19.9764 15.4027 19.6123 15.7668 19.1649 15.7668Z" fill="white"/>
<path d="M21.7938 15.7668C21.3464 15.7668 20.9824 15.4027 20.9824 14.9555C20.9824 14.5081 21.3464 14.144 21.7938 14.144C22.2414 14.144 22.6052 14.5081 22.6052 14.9555C22.6052 15.4027 22.2414 15.7668 21.7938 15.7668Z" fill="white"/>
<path d="M24.4082 15.7668C23.9606 15.7668 23.5967 15.4027 23.5967 14.9555C23.5967 14.5081 23.9606 14.144 24.4082 14.144C24.8556 14.144 25.2196 14.5081 25.2196 14.9555C25.2196 15.4027 24.8556 15.7668 24.4082 15.7668Z" fill="white"/>
<path d="M15.1776 14.3389C14.7678 14.3389 14.4346 14.0055 14.4346 13.596C14.4346 13.1862 14.7678 12.853 15.1776 12.853C15.5871 12.853 15.9204 13.1862 15.9204 13.596C15.9204 14.0055 15.5871 14.3389 15.1776 14.3389Z" fill="white"/>
<path d="M16.5513 12.918C16.1682 12.918 15.8564 12.6064 15.8564 12.2233C15.8564 11.8402 16.1682 11.5287 16.5513 11.5287C16.9342 11.5287 17.2459 11.8402 17.2459 12.2233C17.2459 12.6064 16.9342 12.918 16.5513 12.918Z" fill="white"/>
<path d="M17.8693 11.5432C17.5181 11.5432 17.2324 11.2574 17.2324 10.9062C17.2324 10.5552 17.5181 10.2695 17.8693 10.2695C18.2205 10.2695 18.5061 10.5552 18.5061 10.9062C18.5061 11.2574 18.2205 11.5432 17.8693 11.5432Z" fill="white"/>
<path d="M19.1642 10.2029C18.8131 10.2029 18.5273 9.9174 18.5273 9.56619C18.5273 9.21513 18.8131 8.92934 19.1642 8.92934C19.5154 8.92934 19.801 9.21513 19.801 9.56619C19.801 9.9174 19.5154 10.2029 19.1642 10.2029Z" fill="white"/>
<path d="M21.7941 10.2029C21.4429 10.2029 21.1572 9.9174 21.1572 9.56619C21.1572 9.21513 21.4429 8.92934 21.7941 8.92934C22.1453 8.92934 22.4308 9.21513 22.4308 9.56619C22.4308 9.9174 22.1453 10.2029 21.7941 10.2029Z" fill="white"/>
<path d="M24.5265 10.2029C24.1753 10.2029 23.8896 9.9174 23.8896 9.56619C23.8896 9.21513 24.1753 8.92934 24.5265 8.92934C24.8777 8.92934 25.1633 9.21513 25.1633 9.56619C25.1633 9.9174 24.8777 10.2029 24.5265 10.2029Z" fill="white"/>
<path d="M27.0587 10.2029C26.7075 10.2029 26.4219 9.9174 26.4219 9.56619C26.4219 9.21513 26.7075 8.92934 27.0587 8.92934C27.4099 8.92934 27.6954 9.21513 27.6954 9.56619C27.6954 9.9174 27.4099 10.2029 27.0587 10.2029Z" fill="white"/>
<path d="M29.7775 10.2029C29.4264 10.2029 29.1406 9.9174 29.1406 9.56619C29.1406 9.21513 29.4264 8.92934 29.7775 8.92934C30.1287 8.92934 30.4143 9.21513 30.4143 9.56619C30.4143 9.9174 30.1287 10.2029 29.7775 10.2029Z" fill="white"/>
<path d="M20.5208 8.86011C20.1975 8.86011 19.9346 8.59716 19.9346 8.27392C19.9346 7.95068 20.1975 7.68774 20.5208 7.68774C20.844 7.68774 21.1069 7.95068 21.1069 8.27392C21.1069 8.59716 20.844 8.86011 20.5208 8.86011Z" fill="white"/>
<path d="M23.2307 8.86011C22.9075 8.86011 22.6445 8.59716 22.6445 8.27392C22.6445 7.95068 22.9075 7.68774 23.2307 7.68774C23.554 7.68774 23.8171 7.95068 23.8171 8.27392C23.8171 8.59716 23.554 8.86011 23.2307 8.86011Z" fill="white"/>
<path d="M25.8245 8.86011C25.5012 8.86011 25.2383 8.59716 25.2383 8.27392C25.2383 7.95068 25.5012 7.68774 25.8245 7.68774C26.1479 7.68774 26.4107 7.95068 26.4107 8.27392C26.4107 8.59716 26.1479 8.86011 25.8245 8.86011Z" fill="white"/>
<path d="M28.5323 8.86011C28.2092 8.86011 27.9463 8.59716 27.9463 8.27392C27.9463 7.95068 28.2092 7.68774 28.5323 7.68774C28.8556 7.68774 29.1187 7.95068 29.1187 8.27392C29.1187 8.59716 28.8556 8.86011 28.5323 8.86011Z" fill="white"/>
<path d="M31.2424 8.86011C30.9193 8.86011 30.6562 8.59716 30.6562 8.27392C30.6562 7.95068 30.9193 7.68774 31.2424 7.68774C31.5657 7.68774 31.8286 7.95068 31.8286 8.27392C31.8286 8.59716 31.5657 8.86011 31.2424 8.86011Z" fill="white"/>
<path d="M20.5208 22.2209C20.1975 22.2209 19.9346 21.958 19.9346 21.6348C19.9346 21.3115 20.1975 21.0484 20.5208 21.0484C20.844 21.0484 21.1069 21.3115 21.1069 21.6348C21.1069 21.958 20.844 22.2209 20.5208 22.2209Z" fill="white"/>
<path d="M23.1545 22.2209C22.8313 22.2209 22.5684 21.958 22.5684 21.6348C22.5684 21.3115 22.8313 21.0484 23.1545 21.0484C23.4776 21.0484 23.7406 21.3115 23.7406 21.6348C23.7406 21.958 23.4776 22.2209 23.1545 22.2209Z" fill="white"/>
<path d="M25.7904 22.2209C25.4672 22.2209 25.2041 21.958 25.2041 21.6348C25.2041 21.3115 25.4672 21.0484 25.7904 21.0484C26.1137 21.0484 26.3765 21.3115 26.3765 21.6348C26.3765 21.958 26.1137 22.2209 25.7904 22.2209Z" fill="white"/>
<path d="M28.4241 22.2209C28.1008 22.2209 27.8379 21.958 27.8379 21.6348C27.8379 21.3115 28.1008 21.0484 28.4241 21.0484C28.7472 21.0484 29.0103 21.3115 29.0103 21.6348C29.0103 21.958 28.7472 22.2209 28.4241 22.2209Z" fill="white"/>
<path d="M31.0606 22.2209C30.7376 22.2209 30.4746 21.958 30.4746 21.6348C30.4746 21.3115 30.7376 21.0484 31.0606 21.0484C31.3839 21.0484 31.647 21.3115 31.647 21.6348C31.647 21.958 31.3839 22.2209 31.0606 22.2209Z" fill="white"/>
<path d="M21.9034 7.41162C21.6331 7.41162 21.4131 7.19157 21.4131 6.92117C21.4131 6.65092 21.6331 6.43102 21.9034 6.43102C22.1736 6.43102 22.3937 6.65092 22.3937 6.92117C22.3937 7.19157 22.1736 7.41162 21.9034 7.41162Z" fill="white"/>
<path d="M24.5255 7.41162C24.2552 7.41162 24.0352 7.19157 24.0352 6.92117C24.0352 6.65092 24.2552 6.43102 24.5255 6.43102C24.7957 6.43102 25.0158 6.65092 25.0158 6.92117C25.0158 7.19157 24.7957 7.41162 24.5255 7.41162Z" fill="white"/>
<path d="M27.1474 7.41162C26.8771 7.41162 26.6572 7.19157 26.6572 6.92117C26.6572 6.65092 26.8771 6.43102 27.1474 6.43102C27.4178 6.43102 27.6377 6.65092 27.6377 6.92117C27.6377 7.19157 27.4178 7.41162 27.1474 7.41162Z" fill="white"/>
<path d="M29.7696 7.41162C29.4992 7.41162 29.2793 7.19157 29.2793 6.92117C29.2793 6.65092 29.4992 6.43102 29.7696 6.43102C30.04 6.43102 30.2599 6.65092 30.2599 6.92117C30.2599 7.19157 30.04 7.41162 29.7696 7.41162Z" fill="white"/>
<path d="M32.3926 7.41162C32.1224 7.41162 31.9023 7.19157 31.9023 6.92117C31.9023 6.65092 32.1224 6.43102 32.3926 6.43102C32.663 6.43102 32.8831 6.65092 32.8831 6.92117C32.8831 7.19157 32.663 7.41162 32.3926 7.41162Z" fill="white"/>
<path d="M21.9034 23.427C21.6331 23.427 21.4131 23.2071 21.4131 22.9367C21.4131 22.6663 21.6331 22.4464 21.9034 22.4464C22.1736 22.4464 22.3937 22.6663 22.3937 22.9367C22.3937 23.2071 22.1736 23.427 21.9034 23.427Z" fill="white"/>
<path d="M24.5255 23.427C24.2552 23.427 24.0352 23.2071 24.0352 22.9367C24.0352 22.6663 24.2552 22.4464 24.5255 22.4464C24.7957 22.4464 25.0158 22.6663 25.0158 22.9367C25.0158 23.2071 24.7957 23.427 24.5255 23.427Z" fill="white"/>
<path d="M27.1474 23.427C26.8771 23.427 26.6572 23.2071 26.6572 22.9367C26.6572 22.6663 26.8771 22.4464 27.1474 22.4464C27.4178 22.4464 27.6377 22.6663 27.6377 22.9367C27.6377 23.2071 27.4178 23.427 27.1474 23.427Z" fill="white"/>
<path d="M29.7696 23.427C29.4992 23.427 29.2793 23.2071 29.2793 22.9367C29.2793 22.6663 29.4992 22.4464 29.7696 22.4464C30.04 22.4464 30.2599 22.6663 30.2599 22.9367C30.2599 23.2071 30.04 23.427 29.7696 23.427Z" fill="white"/>
<path d="M32.3926 23.427C32.1224 23.427 31.9023 23.2071 31.9023 22.9367C31.9023 22.6663 32.1224 22.4464 32.3926 22.4464C32.663 22.4464 32.8831 22.6663 32.8831 22.9367C32.8831 23.2071 32.663 23.427 32.3926 23.427Z" fill="white"/>
<path d="M23.2295 6.03101C22.9893 6.03101 22.7939 5.83566 22.7939 5.59525C22.7939 5.355 22.9893 5.1595 23.2295 5.1595C23.4698 5.1595 23.6653 5.355 23.6653 5.59525C23.6653 5.83566 23.4698 6.03101 23.2295 6.03101Z" fill="white"/>
<path d="M25.8869 6.03101C25.6467 6.03101 25.4512 5.83566 25.4512 5.59525C25.4512 5.355 25.6467 5.1595 25.8869 5.1595C26.1272 5.1595 26.3227 5.355 26.3227 5.59525C26.3227 5.83566 26.1272 6.03101 25.8869 6.03101Z" fill="white"/>
<path d="M28.544 6.03101C28.3037 6.03101 28.1084 5.83566 28.1084 5.59525C28.1084 5.355 28.3037 5.1595 28.544 5.1595C28.7841 5.1595 28.9796 5.355 28.9796 5.59525C28.9796 5.83566 28.7841 6.03101 28.544 6.03101Z" fill="white"/>
<path d="M31.2012 6.03101C30.9611 6.03101 30.7656 5.83566 30.7656 5.59525C30.7656 5.355 30.9611 5.1595 31.2012 5.1595C31.4415 5.1595 31.637 5.355 31.637 5.59525C31.637 5.83566 31.4415 6.03101 31.2012 6.03101Z" fill="white"/>
<path d="M33.8606 6.03101C33.6203 6.03101 33.4248 5.83566 33.4248 5.59525C33.4248 5.355 33.6203 5.1595 33.8606 5.1595C34.1008 5.1595 34.2963 5.355 34.2963 5.59525C34.2963 5.83566 34.1008 6.03101 33.8606 6.03101Z" fill="white"/>
<path d="M23.2295 24.7783C22.9893 24.7783 22.7939 24.5828 22.7939 24.3426C22.7939 24.1023 22.9893 23.907 23.2295 23.907C23.4698 23.907 23.6653 24.1023 23.6653 24.3426C23.6653 24.5828 23.4698 24.7783 23.2295 24.7783Z" fill="white"/>
<path d="M25.9221 24.7783C25.6818 24.7783 25.4863 24.5828 25.4863 24.3426C25.4863 24.1023 25.6818 23.907 25.9221 23.907C26.1622 23.907 26.3577 24.1023 26.3577 24.3426C26.3577 24.5828 26.1622 24.7783 25.9221 24.7783Z" fill="white"/>
<path d="M28.6135 24.7783C28.3732 24.7783 28.1777 24.5828 28.1777 24.3426C28.1777 24.1023 28.3732 23.907 28.6135 23.907C28.8537 23.907 29.0492 24.1023 29.0492 24.3426C29.0492 24.5828 28.8537 24.7783 28.6135 24.7783Z" fill="white"/>
<path d="M31.3049 24.7783C31.0646 24.7783 30.8691 24.5828 30.8691 24.3426C30.8691 24.1023 31.0646 23.907 31.3049 23.907C31.5452 23.907 31.7406 24.1023 31.7406 24.3426C31.7406 24.5828 31.5452 24.7783 31.3049 24.7783Z" fill="white"/>
<path d="M33.9963 24.7783C33.7559 24.7783 33.5605 24.5828 33.5605 24.3426C33.5605 24.1023 33.7559 23.907 33.9963 23.907C34.2364 23.907 34.4319 24.1023 34.4319 24.3426C34.4319 24.5828 34.2364 24.7783 33.9963 24.7783Z" fill="white"/>
<path d="M24.599 4.58936C24.3985 4.58936 24.2354 4.42618 24.2354 4.22556C24.2354 4.02508 24.3985 3.86191 24.599 3.86191C24.7996 3.86191 24.9628 4.02508 24.9628 4.22556C24.9628 4.42618 24.7996 4.58936 24.599 4.58936Z" fill="white"/>
<path d="M24.524 25.9868C24.3233 25.9868 24.1602 25.8238 24.1602 25.6232C24.1602 25.4227 24.3233 25.2594 24.524 25.2594C24.7244 25.2594 24.8876 25.4227 24.8876 25.6232C24.8876 25.8238 24.7244 25.9868 24.524 25.9868Z" fill="white"/>
<path d="M27.2562 25.9868C27.0556 25.9868 26.8926 25.8238 26.8926 25.6232C26.8926 25.4227 27.0556 25.2594 27.2562 25.2594C27.4569 25.2594 27.62 25.4227 27.62 25.6232C27.62 25.8238 27.4569 25.9868 27.2562 25.9868Z" fill="white"/>
<path d="M29.8734 25.9868C29.6728 25.9868 29.5098 25.8238 29.5098 25.6232C29.5098 25.4227 29.6728 25.2594 29.8734 25.2594C30.0739 25.2594 30.2372 25.4227 30.2372 25.6232C30.2372 25.8238 30.0739 25.9868 29.8734 25.9868Z" fill="white"/>
<path d="M32.5171 25.9868C32.3167 25.9868 32.1533 25.8238 32.1533 25.6232C32.1533 25.4227 32.3167 25.2594 32.5171 25.2594C32.7176 25.2594 32.8809 25.4227 32.8809 25.6232C32.8809 25.8238 32.7176 25.9868 32.5171 25.9868Z" fill="white"/>
<path d="M35.2183 25.9868C35.0177 25.9868 34.8545 25.8238 34.8545 25.6232C34.8545 25.4227 35.0177 25.2594 35.2183 25.2594C35.4189 25.2594 35.5819 25.4227 35.5819 25.6232C35.5819 25.8238 35.4189 25.9868 35.2183 25.9868Z" fill="white"/>
<path d="M27.2466 4.58936C27.046 4.58936 26.8828 4.42618 26.8828 4.22556C26.8828 4.02508 27.046 3.86191 27.2466 3.86191C27.4471 3.86191 27.6103 4.02508 27.6103 4.22556C27.6103 4.42618 27.4471 4.58936 27.2466 4.58936Z" fill="white"/>
<path d="M29.8931 4.58936C29.6925 4.58936 29.5293 4.42618 29.5293 4.22556C29.5293 4.02508 29.6925 3.86191 29.8931 3.86191C30.0936 3.86191 30.2567 4.02508 30.2567 4.22556C30.2567 4.42618 30.0936 4.58936 29.8931 4.58936Z" fill="white"/>
<path d="M32.5375 4.58936C32.337 4.58936 32.1738 4.42618 32.1738 4.22556C32.1738 4.02508 32.337 3.86191 32.5375 3.86191C32.7383 3.86191 32.9013 4.02508 32.9013 4.22556C32.9013 4.42618 32.7383 4.58936 32.5375 4.58936Z" fill="white"/>
<path d="M35.187 4.58936C34.9864 4.58936 34.8232 4.42618 34.8232 4.22556C34.8232 4.02508 34.9864 3.86191 35.187 3.86191C35.3877 3.86191 35.5508 4.02508 35.5508 4.22556C35.5508 4.42618 35.3877 4.58936 35.187 4.58936Z" fill="white"/>
<path d="M25.8861 3.2627C25.7066 3.2627 25.5605 3.11677 25.5605 2.93728C25.5605 2.75779 25.7066 2.61171 25.8861 2.61171C26.0656 2.61171 26.2117 2.75779 26.2117 2.93728C26.2117 3.11677 26.0656 3.2627 25.8861 3.2627Z" fill="white"/>
<path d="M25.8861 27.364C25.7066 27.364 25.5605 27.2179 25.5605 27.0384C25.5605 26.8591 25.7066 26.713 25.8861 26.713C26.0656 26.713 26.2117 26.8591 26.2117 27.0384C26.2117 27.2179 26.0656 27.364 25.8861 27.364Z" fill="white"/>
<path d="M28.5541 27.364C28.3746 27.364 28.2285 27.2179 28.2285 27.0384C28.2285 26.8591 28.3746 26.713 28.5541 26.713C28.7336 26.713 28.8797 26.8591 28.8797 27.0384C28.8797 27.2179 28.7336 27.364 28.5541 27.364Z" fill="white"/>
<path d="M31.2201 27.364C31.0406 27.364 30.8945 27.2179 30.8945 27.0384C30.8945 26.8591 31.0406 26.713 31.2201 26.713C31.3996 26.713 31.5457 26.8591 31.5457 27.0384C31.5457 27.2179 31.3996 27.364 31.2201 27.364Z" fill="white"/>
<path d="M33.8889 27.364C33.7096 27.364 33.5635 27.2179 33.5635 27.0384C33.5635 26.8591 33.7096 26.713 33.8889 26.713C34.0684 26.713 34.2145 26.8591 34.2145 27.0384C34.2145 27.2179 34.0684 27.364 33.8889 27.364Z" fill="white"/>
<path d="M36.5559 27.364C36.3765 27.364 36.2305 27.2179 36.2305 27.0384C36.2305 26.8591 36.3765 26.713 36.5559 26.713C36.7354 26.713 36.8815 26.8591 36.8815 27.0384C36.8815 27.2179 36.7354 27.364 36.5559 27.364Z" fill="white"/>
<path d="M28.5334 3.2627C28.3541 3.2627 28.208 3.11677 28.208 2.93728C28.208 2.75779 28.3541 2.61171 28.5334 2.61171C28.7129 2.61171 28.859 2.75779 28.859 2.93728C28.859 3.11677 28.7129 3.2627 28.5334 3.2627Z" fill="white"/>
<path d="M31.1799 3.2627C31.0004 3.2627 30.8545 3.11677 30.8545 2.93728C30.8545 2.75779 31.0004 2.61171 31.1799 2.61171C31.3594 2.61171 31.5053 2.75779 31.5053 2.93728C31.5053 3.11677 31.3594 3.2627 31.1799 3.2627Z" fill="white"/>
<path d="M33.8265 3.2627C33.6469 3.2627 33.501 3.11677 33.501 2.93728C33.501 2.75779 33.6469 2.61171 33.8265 2.61171C34.006 2.61171 34.152 2.75779 34.152 2.93728C34.152 3.11677 34.006 3.2627 33.8265 3.2627Z" fill="white"/>
<path d="M36.4721 3.2627C36.2926 3.2627 36.1465 3.11677 36.1465 2.93728C36.1465 2.75779 36.2926 2.61171 36.4721 2.61171C36.6516 2.61171 36.7976 2.75779 36.7976 2.93728C36.7976 3.11677 36.6516 3.2627 36.4721 3.2627Z" fill="white"/>
<path d="M27.2458 1.86353C27.0887 1.86353 26.9609 1.73594 26.9609 1.57882C26.9609 1.42186 27.0887 1.29412 27.2458 1.29412C27.4028 1.29412 27.5303 1.42186 27.5303 1.57882C27.5303 1.73594 27.4028 1.86353 27.2458 1.86353Z" fill="white"/>
<path d="M27.2458 28.6528C27.0887 28.6528 26.9609 28.5251 26.9609 28.3681C26.9609 28.2112 27.0887 28.0834 27.2458 28.0834C27.4028 28.0834 27.5303 28.2112 27.5303 28.3681C27.5303 28.5251 27.4028 28.6528 27.2458 28.6528Z" fill="white"/>
<path d="M29.8726 28.6528C29.7156 28.6528 29.5879 28.5251 29.5879 28.3681C29.5879 28.2112 29.7156 28.0834 29.8726 28.0834C30.0296 28.0834 30.1571 28.2112 30.1571 28.3681C30.1571 28.5251 30.0296 28.6528 29.8726 28.6528Z" fill="white"/>
<path d="M32.4995 28.6528C32.3424 28.6528 32.2148 28.5251 32.2148 28.3681C32.2148 28.2112 32.3424 28.0834 32.4995 28.0834C32.6565 28.0834 32.7841 28.2112 32.7841 28.3681C32.7841 28.5251 32.6565 28.6528 32.4995 28.6528Z" fill="white"/>
<path d="M35.1244 28.6528C34.9674 28.6528 34.8398 28.5251 34.8398 28.3681C34.8398 28.2112 34.9674 28.0834 35.1244 28.0834C35.2815 28.0834 35.4091 28.2112 35.4091 28.3681C35.4091 28.5251 35.2815 28.6528 35.1244 28.6528Z" fill="white"/>
<path d="M37.7505 28.6528C37.5936 28.6528 37.4658 28.5251 37.4658 28.3681C37.4658 28.2112 37.5936 28.0834 37.7505 28.0834C37.9075 28.0834 38.0354 28.2112 38.0354 28.3681C38.0354 28.5251 37.9075 28.6528 37.7505 28.6528Z" fill="white"/>
<path d="M29.8933 1.86353C29.7361 1.86353 29.6084 1.73594 29.6084 1.57882C29.6084 1.42186 29.7361 1.29412 29.8933 1.29412C30.0502 1.29412 30.1778 1.42186 30.1778 1.57882C30.1778 1.73594 30.0502 1.86353 29.8933 1.86353Z" fill="white"/>
<path d="M32.5375 1.86353C32.3807 1.86353 32.2529 1.73594 32.2529 1.57882C32.2529 1.42186 32.3807 1.29412 32.5375 1.29412C32.6946 1.29412 32.8223 1.42186 32.8223 1.57882C32.8223 1.73594 32.6946 1.86353 32.5375 1.86353Z" fill="white"/>
<path d="M35.1859 1.86353C35.029 1.86353 34.9014 1.73594 34.9014 1.57882C34.9014 1.42186 35.029 1.29412 35.1859 1.29412C35.3429 1.29412 35.4706 1.42186 35.4706 1.57882C35.4706 1.73594 35.3429 1.86353 35.1859 1.86353Z" fill="white"/>
<path d="M37.8326 1.86353C37.6754 1.86353 37.5479 1.73594 37.5479 1.57882C37.5479 1.42186 37.6754 1.29412 37.8326 1.29412C37.9897 1.29412 38.1173 1.42186 38.1173 1.57882C38.1173 1.73594 37.9897 1.86353 37.8326 1.86353Z" fill="white"/>
<path d="M28.5533 0.569336C28.3961 0.569336 28.2686 0.441592 28.2686 0.284634C28.2686 0.127675 28.3961 -6.80685e-05 28.5533 -6.80685e-05C28.7102 -6.80685e-05 28.8378 0.127675 28.8378 0.284634C28.8378 0.441592 28.7102 0.569336 28.5533 0.569336Z" fill="white"/>
<path d="M28.5533 30C28.3961 30 28.2686 29.8721 28.2686 29.7153C28.2686 29.5582 28.3961 29.4306 28.5533 29.4306C28.7102 29.4306 28.8378 29.5582 28.8378 29.7153C28.8378 29.8721 28.7102 30 28.5533 30Z" fill="white"/>
<path d="M31.2222 30C31.0651 30 30.9375 29.8721 30.9375 29.7153C30.9375 29.5582 31.0651 29.4306 31.2222 29.4306C31.3792 29.4306 31.5069 29.5582 31.5069 29.7153C31.5069 29.8721 31.3792 30 31.2222 30Z" fill="white"/>
<path d="M33.8882 30C33.7313 30 33.6035 29.8721 33.6035 29.7153C33.6035 29.5582 33.7313 29.4306 33.8882 29.4306C34.0453 29.4306 34.1729 29.5582 34.1729 29.7153C34.1729 29.8721 34.0453 30 33.8882 30Z" fill="white"/>
<path d="M36.5551 30C36.3981 30 36.2705 29.8721 36.2705 29.7153C36.2705 29.5582 36.3981 29.4306 36.5551 29.4306C36.7122 29.4306 36.8398 29.5582 36.8398 29.7153C36.8398 29.8721 36.7122 30 36.5551 30Z" fill="white"/>
<path d="M39.224 30C39.067 30 38.9395 29.8721 38.9395 29.7153C38.9395 29.5582 39.067 29.4306 39.224 29.4306C39.3811 29.4306 39.5087 29.5582 39.5087 29.7153C39.5087 29.8721 39.3811 30 39.224 30Z" fill="white"/>
<path d="M31.1792 0.569336C31.0223 0.569336 30.8945 0.441592 30.8945 0.284634C30.8945 0.127675 31.0223 -6.80685e-05 31.1792 -6.80685e-05C31.3362 -6.80685e-05 31.4638 0.127675 31.4638 0.284634C31.4638 0.441592 31.3362 0.569336 31.1792 0.569336Z" fill="white"/>
<path d="M33.8062 0.569336C33.6492 0.569336 33.5215 0.441592 33.5215 0.284634C33.5215 0.127675 33.6492 -6.80685e-05 33.8062 -6.80685e-05C33.9633 -6.80685e-05 34.0909 0.127675 34.0909 0.284634C34.0909 0.441592 33.9633 0.569336 33.8062 0.569336Z" fill="white"/>
<path d="M36.431 0.569336C36.2742 0.569336 36.1465 0.441592 36.1465 0.284634C36.1465 0.127675 36.2742 -6.80685e-05 36.431 -6.80685e-05C36.5881 -6.80685e-05 36.7159 0.127675 36.7159 0.284634C36.7159 0.441592 36.5881 0.569336 36.431 0.569336Z" fill="white"/>
<path d="M39.058 0.569336C38.901 0.569336 38.7734 0.441592 38.7734 0.284634C38.7734 0.127675 38.901 -6.80685e-05 39.058 -6.80685e-05C39.2151 -6.80685e-05 39.3427 0.127675 39.3427 0.284634C39.3427 0.441592 39.2151 0.569336 39.058 0.569336Z" fill="white"/>
<path d="M19.1642 20.9814C18.8131 20.9814 18.5273 20.6957 18.5273 20.3448C18.5273 19.9935 18.8131 19.7077 19.1642 19.7077C19.5154 19.7077 19.801 19.9935 19.801 20.3448C19.801 20.6957 19.5154 20.9814 19.1642 20.9814Z" fill="white"/>
<path d="M21.7941 20.9814C21.4429 20.9814 21.1572 20.6957 21.1572 20.3448C21.1572 19.9935 21.4429 19.7077 21.7941 19.7077C22.1453 19.7077 22.4308 19.9935 22.4308 20.3448C22.4308 20.6957 22.1453 20.9814 21.7941 20.9814Z" fill="white"/>
<path d="M24.5265 20.9814C24.1753 20.9814 23.8896 20.6957 23.8896 20.3448C23.8896 19.9935 24.1753 19.7077 24.5265 19.7077C24.8777 19.7077 25.1633 19.9935 25.1633 20.3448C25.1633 20.6957 24.8777 20.9814 24.5265 20.9814Z" fill="white"/>
<path d="M27.2568 20.9814C26.9058 20.9814 26.6201 20.6957 26.6201 20.3448C26.6201 19.9935 26.9058 19.7077 27.2568 19.7077C27.608 19.7077 27.8935 19.9935 27.8935 20.3448C27.8935 20.6957 27.608 20.9814 27.2568 20.9814Z" fill="white"/>
<path d="M29.9866 20.9814C29.6354 20.9814 29.3496 20.6957 29.3496 20.3448C29.3496 19.9935 29.6354 19.7077 29.9866 19.7077C30.3377 19.7077 30.6233 19.9935 30.6233 20.3448C30.6233 20.6957 30.3377 20.9814 29.9866 20.9814Z" fill="white"/>
<path d="M17.8693 19.6665C17.5181 19.6665 17.2324 19.3809 17.2324 19.0297C17.2324 18.6784 17.5181 18.3928 17.8693 18.3928C18.2205 18.3928 18.5061 18.6784 18.5061 19.0297C18.5061 19.3809 18.2205 19.6665 17.8693 19.6665Z" fill="white"/>
<path d="M16.5513 18.3767C16.1682 18.3767 15.8564 18.0651 15.8564 17.6821C15.8564 17.299 16.1682 16.9872 16.5513 16.9872C16.9342 16.9872 17.2459 17.299 17.2459 17.6821C17.2459 18.0651 16.9342 18.3767 16.5513 18.3767Z" fill="white"/>
<path d="M17.8675 17.0098C17.4844 17.0098 17.1729 16.6982 17.1729 16.3151C17.1729 15.932 17.4844 15.6203 17.8675 15.6203C18.2506 15.6203 18.5622 15.932 18.5622 16.3151C18.5622 16.6982 18.2506 17.0098 17.8675 17.0098Z" fill="white"/>
<path d="M20.4614 17.0098C20.0782 17.0098 19.7666 16.6982 19.7666 16.3151C19.7666 15.932 20.0782 15.6203 20.4614 15.6203C20.8443 15.6203 21.1559 15.932 21.1559 16.3151C21.1559 16.6982 20.8443 17.0098 20.4614 17.0098Z" fill="white"/>
<path d="M23.0972 17.0098C22.7141 17.0098 22.4023 16.6982 22.4023 16.3151C22.4023 15.932 22.7141 15.6203 23.0972 15.6203C23.4802 15.6203 23.7917 15.932 23.7917 16.3151C23.7917 16.6982 23.4802 17.0098 23.0972 17.0098Z" fill="white"/>
<path d="M25.72 17.0098C25.337 17.0098 25.0254 16.6982 25.0254 16.3151C25.0254 15.932 25.337 15.6203 25.72 15.6203C26.103 15.6203 26.4147 15.932 26.4147 16.3151C26.4147 16.6982 26.103 17.0098 25.72 17.0098Z" fill="white"/>
<path d="M17.8675 14.2903C17.4844 14.2903 17.1729 13.9785 17.1729 13.5956C17.1729 13.2126 17.4844 12.9008 17.8675 12.9008C18.2506 12.9008 18.5622 13.2126 18.5622 13.5956C18.5622 13.9785 18.2506 14.2903 17.8675 14.2903Z" fill="white"/>
<path d="M20.52 14.2903C20.1369 14.2903 19.8252 13.9785 19.8252 13.5956C19.8252 13.2126 20.1369 12.9008 20.52 12.9008C20.9029 12.9008 21.2145 13.2126 21.2145 13.5956C21.2145 13.9785 20.9029 14.2903 20.52 14.2903Z" fill="white"/>
<path d="M23.0972 14.2903C22.7141 14.2903 22.4023 13.9785 22.4023 13.5956C22.4023 13.2126 22.7141 12.9008 23.0972 12.9008C23.4802 12.9008 23.7917 13.2126 23.7917 13.5956C23.7917 13.9785 23.4802 14.2903 23.0972 14.2903Z" fill="white"/>
<path d="M25.8646 14.2903C25.4814 14.2903 25.1699 13.9785 25.1699 13.5956C25.1699 13.2126 25.4814 12.9008 25.8646 12.9008C26.2477 12.9008 26.5594 13.2126 26.5594 13.5956C26.5594 13.9785 26.2477 14.2903 25.8646 14.2903Z" fill="white"/>
<path d="M19.1644 12.918C18.7813 12.918 18.4697 12.6064 18.4697 12.2233C18.4697 11.8402 18.7813 11.5287 19.1644 11.5287C19.5475 11.5287 19.859 11.8402 19.859 12.2233C19.859 12.6064 19.5475 12.918 19.1644 12.918Z" fill="white"/>
<path d="M21.7934 12.918C21.4104 12.918 21.0986 12.6064 21.0986 12.2233C21.0986 11.8402 21.4104 11.5287 21.7934 11.5287C22.1765 11.5287 22.4883 11.8402 22.4883 12.2233C22.4883 12.6064 22.1765 12.918 21.7934 12.918Z" fill="white"/>
<path d="M24.4087 12.918C24.0256 12.918 23.7139 12.6064 23.7139 12.2233C23.7139 11.8402 24.0256 11.5287 24.4087 11.5287C24.7918 11.5287 25.1033 11.8402 25.1033 12.2233C25.1033 12.6064 24.7918 12.918 24.4087 12.918Z" fill="white"/>
<path d="M27.0599 12.918C26.6768 12.918 26.3652 12.6064 26.3652 12.2233C26.3652 11.8402 26.6768 11.5287 27.0599 11.5287C27.443 11.5287 27.7546 11.8402 27.7546 12.2233C27.7546 12.6064 27.443 12.918 27.0599 12.918Z" fill="white"/>
<path d="M20.5206 11.5432C20.1694 11.5432 19.8838 11.2574 19.8838 10.9062C19.8838 10.5552 20.1694 10.2695 20.5206 10.2695C20.8717 10.2695 21.1573 10.5552 21.1573 10.9062C21.1573 11.2574 20.8717 11.5432 20.5206 11.5432Z" fill="white"/>
<path d="M23.2304 11.5432C22.8792 11.5432 22.5938 11.2574 22.5938 10.9062C22.5938 10.5552 22.8792 10.2695 23.2304 10.2695C23.5817 10.2695 23.8673 10.5552 23.8673 10.9062C23.8673 11.2574 23.5817 11.5432 23.2304 11.5432Z" fill="white"/>
<path d="M25.7199 11.5432C25.3686 11.5432 25.083 11.2574 25.083 10.9062C25.083 10.5552 25.3686 10.2695 25.7199 10.2695C26.0709 10.2695 26.3565 10.5552 26.3565 10.9062C26.3565 11.2574 26.0709 11.5432 25.7199 11.5432Z" fill="white"/>
<path d="M28.3956 11.5432C28.0446 11.5432 27.7588 11.2574 27.7588 10.9062C27.7588 10.5552 28.0446 10.2695 28.3956 10.2695C28.7467 10.2695 29.0325 10.5552 29.0325 10.9062C29.0325 11.2574 28.7467 11.5432 28.3956 11.5432Z" fill="white"/>
<path d="M20.5206 19.6665C20.1694 19.6665 19.8838 19.3809 19.8838 19.0297C19.8838 18.6784 20.1694 18.3928 20.5206 18.3928C20.8717 18.3928 21.1573 18.6784 21.1573 19.0297C21.1573 19.3809 20.8717 19.6665 20.5206 19.6665Z" fill="white"/>
<path d="M23.1554 19.6665C22.8042 19.6665 22.5186 19.3809 22.5186 19.0297C22.5186 18.6784 22.8042 18.3928 23.1554 18.3928C23.5065 18.3928 23.7921 18.6784 23.7921 19.0297C23.7921 19.3809 23.5065 19.6665 23.1554 19.6665Z" fill="white"/>
<path d="M25.7199 19.6665C25.3686 19.6665 25.083 19.3809 25.083 19.0297C25.083 18.6784 25.3686 18.3928 25.7199 18.3928C26.0709 18.3928 26.3565 18.6784 26.3565 19.0297C26.3565 19.3809 26.0709 19.6665 25.7199 19.6665Z" fill="white"/>
<path d="M28.3956 19.6665C28.0446 19.6665 27.7588 19.3809 27.7588 19.0297C27.7588 18.6784 28.0446 18.3928 28.3956 18.3928C28.7467 18.3928 29.0325 18.6784 29.0325 19.0297C29.0325 19.3809 28.7467 19.6665 28.3956 19.6665Z" fill="white"/>
<path d="M19.1644 18.3767C18.7813 18.3767 18.4697 18.0651 18.4697 17.6821C18.4697 17.299 18.7813 16.9872 19.1644 16.9872C19.5475 16.9872 19.859 17.299 19.859 17.6821C19.859 18.0651 19.5475 18.3767 19.1644 18.3767Z" fill="white"/>
<path d="M21.7934 18.3767C21.4104 18.3767 21.0986 18.0651 21.0986 17.6821C21.0986 17.299 21.4104 16.9872 21.7934 16.9872C22.1765 16.9872 22.4883 17.299 22.4883 17.6821C22.4883 18.0651 22.1765 18.3767 21.7934 18.3767Z" fill="white"/>
<path d="M24.5249 18.3767C24.1417 18.3767 23.8301 18.0651 23.8301 17.6821C23.8301 17.299 24.1417 16.9872 24.5249 16.9872C24.908 16.9872 25.2195 17.299 25.2195 17.6821C25.2195 18.0651 24.908 18.3767 24.5249 18.3767Z" fill="white"/>
<path d="M27.0599 18.3767C26.6768 18.3767 26.3652 18.0651 26.3652 17.6821C26.3652 17.299 26.6768 16.9872 27.0599 16.9872C27.443 16.9872 27.7546 17.299 27.7546 17.6821C27.7546 18.0651 27.443 18.3767 27.0599 18.3767Z" fill="white"/>
<path d="M15.1776 17.0591C14.7678 17.0591 14.4346 16.7257 14.4346 16.3161C14.4346 15.9065 14.7678 15.5731 15.1776 15.5731C15.5871 15.5731 15.9204 15.9065 15.9204 16.3161C15.9204 16.7257 15.5871 17.0591 15.1776 17.0591Z" fill="white"/>
<path d="M0 29.5952L12.9701 16.6037L18.7149 22.0255L10.8384 29.5952H0Z" fill="white"/>
<path d="M0 0.0330715L12.9701 13.0244L18.7149 7.60282L10.8384 0.0330715H0Z" fill="white"/>
</svg>
