<svg xmlns="http://www.w3.org/2000/svg" width="135" height="26" viewBox="0 0 140 26" fill="none">
<path d="M11.5794 13.2121C11.2045 13.2121 10.8995 12.907 10.8995 12.5322C10.8995 12.1573 11.2045 11.8522 11.5794 11.8522C11.9545 11.8522 12.2593 12.1573 12.2593 12.5322C12.2593 12.907 11.9545 13.2121 11.5794 13.2121Z" fill="white"/>
<path d="M13.7717 13.2121C13.3967 13.2121 13.0917 12.907 13.0917 12.5322C13.0917 12.1573 13.3967 11.8522 13.7717 11.8522C14.1465 11.8522 14.4516 12.1573 14.4516 12.5322C14.4516 12.907 14.1465 13.2121 13.7717 13.2121Z" fill="white"/>
<path d="M16.0589 13.2121C15.684 13.2121 15.379 12.907 15.379 12.5322C15.379 12.1573 15.684 11.8522 16.0589 11.8522C16.4338 11.8522 16.7389 12.1573 16.7389 12.5322C16.7389 12.907 16.4338 13.2121 16.0589 13.2121Z" fill="white"/>
<path d="M18.2631 13.2121C17.8882 13.2121 17.5833 12.907 17.5833 12.5322C17.5833 12.1573 17.8882 11.8522 18.2631 11.8522C18.6382 11.8522 18.943 12.1573 18.943 12.5322C18.943 12.907 18.6382 13.2121 18.2631 13.2121Z" fill="white"/>
<path d="M20.4533 13.2121C20.0783 13.2121 19.7733 12.907 19.7733 12.5322C19.7733 12.1573 20.0783 11.8522 20.4533 11.8522C20.8282 11.8522 21.1332 12.1573 21.1332 12.5322C21.1332 12.907 20.8282 13.2121 20.4533 13.2121Z" fill="white"/>
<path d="M12.719 12.0152C12.3756 12.0152 12.0964 11.7359 12.0964 11.3927C12.0964 11.0493 12.3756 10.7701 12.719 10.7701C13.0622 10.7701 13.3415 11.0493 13.3415 11.3927C13.3415 11.7359 13.0622 12.0152 12.719 12.0152Z" fill="white"/>
<path d="M13.8696 10.8242C13.5486 10.8242 13.2874 10.5631 13.2874 10.2421C13.2874 9.92107 13.5486 9.65997 13.8696 9.65997C14.1904 9.65997 14.4517 9.92107 14.4517 10.2421C14.4517 10.5631 14.1904 10.8242 13.8696 10.8242Z" fill="white"/>
<path d="M14.9726 9.67261C14.6783 9.67261 14.439 9.43313 14.439 9.13883C14.439 8.84466 14.6783 8.60531 14.9726 8.60531C15.2669 8.60531 15.5063 8.84466 15.5063 9.13883C15.5063 9.43313 15.2669 9.67261 14.9726 9.67261Z" fill="white"/>
<path d="M16.059 8.54962C15.7649 8.54962 15.5254 8.3104 15.5254 8.0161C15.5254 7.72193 15.7649 7.48245 16.059 7.48245C16.3533 7.48245 16.5927 7.72193 16.5927 8.0161C16.5927 8.3104 16.3533 8.54962 16.059 8.54962Z" fill="white"/>
<path d="M18.2631 8.54962C17.9688 8.54962 17.7295 8.3104 17.7295 8.0161C17.7295 7.72193 17.9688 7.48245 18.2631 7.48245C18.5574 7.48245 18.7967 7.72193 18.7967 8.0161C18.7967 8.3104 18.5574 8.54962 18.2631 8.54962Z" fill="white"/>
<path d="M20.5511 8.54962C20.2568 8.54962 20.0175 8.3104 20.0175 8.0161C20.0175 7.72193 20.2568 7.48245 20.5511 7.48245C20.8454 7.48245 21.0848 7.72193 21.0848 8.0161C21.0848 8.3104 20.8454 8.54962 20.5511 8.54962Z" fill="white"/>
<path d="M22.6746 8.54962C22.3803 8.54962 22.141 8.3104 22.141 8.0161C22.141 7.72193 22.3803 7.48245 22.6746 7.48245C22.9689 7.48245 23.2082 7.72193 23.2082 8.0161C23.2082 8.3104 22.9689 8.54962 22.6746 8.54962Z" fill="white"/>
<path d="M24.9517 8.54962C24.6576 8.54962 24.4181 8.3104 24.4181 8.0161C24.4181 7.72193 24.6576 7.48245 24.9517 7.48245C25.246 7.48245 25.4854 7.72193 25.4854 8.0161C25.4854 8.3104 25.246 8.54962 24.9517 8.54962Z" fill="white"/>
<path d="M17.1952 7.42487C16.9243 7.42487 16.704 7.20453 16.704 6.93367C16.704 6.66281 16.9243 6.44247 17.1952 6.44247C17.466 6.44247 17.6864 6.66281 17.6864 6.93367C17.6864 7.20453 17.466 7.42487 17.1952 7.42487Z" fill="white"/>
<path d="M19.4652 7.42487C19.1943 7.42487 18.974 7.20453 18.974 6.93367C18.974 6.66281 19.1943 6.44247 19.4652 6.44247C19.7361 6.44247 19.9565 6.66281 19.9565 6.93367C19.9565 7.20453 19.7361 7.42487 19.4652 7.42487Z" fill="white"/>
<path d="M21.6398 7.42487C21.3689 7.42487 21.1486 7.20453 21.1486 6.93367C21.1486 6.66281 21.3689 6.44247 21.6398 6.44247C21.9107 6.44247 22.131 6.66281 22.131 6.93367C22.131 7.20453 21.9107 7.42487 21.6398 7.42487Z" fill="white"/>
<path d="M23.9098 7.42487C23.639 7.42487 23.4187 7.20453 23.4187 6.93367C23.4187 6.66281 23.639 6.44247 23.9098 6.44247C24.1806 6.44247 24.4011 6.66281 24.4011 6.93367C24.4011 7.20453 24.1806 7.42487 23.9098 7.42487Z" fill="white"/>
<path d="M26.1799 7.42487C25.9092 7.42487 25.6887 7.20453 25.6887 6.93367C25.6887 6.66281 25.9092 6.44247 26.1799 6.44247C26.4508 6.44247 26.6711 6.66281 26.6711 6.93367C26.6711 7.20453 26.4508 7.42487 26.1799 7.42487Z" fill="white"/>
<path d="M17.1952 18.6193C16.9243 18.6193 16.704 18.399 16.704 18.1281C16.704 17.8573 16.9243 17.6368 17.1952 17.6368C17.466 17.6368 17.6864 17.8573 17.6864 18.1281C17.6864 18.399 17.466 18.6193 17.1952 18.6193Z" fill="white"/>
<path d="M19.4028 18.6193C19.132 18.6193 18.9116 18.399 18.9116 18.1281C18.9116 17.8573 19.132 17.6368 19.4028 17.6368C19.6736 17.6368 19.8939 17.8573 19.8939 18.1281C19.8939 18.399 19.6736 18.6193 19.4028 18.6193Z" fill="white"/>
<path d="M21.6105 18.6193C21.3396 18.6193 21.1191 18.399 21.1191 18.1281C21.1191 17.8573 21.3396 17.6368 21.6105 17.6368C21.8813 17.6368 22.1015 17.8573 22.1015 18.1281C22.1015 18.399 21.8813 18.6193 21.6105 18.6193Z" fill="white"/>
<path d="M23.8181 18.6193C23.5472 18.6193 23.3269 18.399 23.3269 18.1281C23.3269 17.8573 23.5472 17.6368 23.8181 17.6368C24.0888 17.6368 24.3093 17.8573 24.3093 18.1281C24.3093 18.399 24.0888 18.6193 23.8181 18.6193Z" fill="white"/>
<path d="M26.0256 18.6193C25.7549 18.6193 25.5345 18.399 25.5345 18.1281C25.5345 17.8573 25.7549 17.6368 26.0256 17.6368C26.2965 17.6368 26.5169 17.8573 26.5169 18.1281C26.5169 18.399 26.2965 18.6193 26.0256 18.6193Z" fill="white"/>
<path d="M18.354 6.21057C18.1275 6.21057 17.9431 6.02618 17.9431 5.79959C17.9431 5.57314 18.1275 5.38887 18.354 5.38887C18.5804 5.38887 18.7648 5.57314 18.7648 5.79959C18.7648 6.02618 18.5804 6.21057 18.354 6.21057Z" fill="white"/>
<path d="M20.5511 6.21057C20.3247 6.21057 20.1403 6.02618 20.1403 5.79959C20.1403 5.57314 20.3247 5.38887 20.5511 5.38887C20.7776 5.38887 20.962 5.57314 20.962 5.79959C20.962 6.02618 20.7776 6.21057 20.5511 6.21057Z" fill="white"/>
<path d="M22.7481 6.21057C22.5217 6.21057 22.3374 6.02618 22.3374 5.79959C22.3374 5.57314 22.5217 5.38887 22.7481 5.38887C22.9747 5.38887 23.159 5.57314 23.159 5.79959C23.159 6.02618 22.9747 6.21057 22.7481 6.21057Z" fill="white"/>
<path d="M24.9454 6.21057C24.7188 6.21057 24.5345 6.02618 24.5345 5.79959C24.5345 5.57314 24.7188 5.38887 24.9454 5.38887C25.172 5.38887 25.3562 5.57314 25.3562 5.79959C25.3562 6.02618 25.172 6.21057 24.9454 6.21057Z" fill="white"/>
<path d="M27.1423 6.21057C26.9158 6.21057 26.7314 6.02618 26.7314 5.79959C26.7314 5.57314 26.9158 5.38887 27.1423 5.38887C27.3689 5.38887 27.5533 5.57314 27.5533 5.79959C27.5533 6.02618 27.3689 6.21057 27.1423 6.21057Z" fill="white"/>
<path d="M18.354 19.6307C18.1275 19.6307 17.9431 19.4465 17.9431 19.2199C17.9431 18.9933 18.1275 18.809 18.354 18.809C18.5804 18.809 18.7648 18.9933 18.7648 19.2199C18.7648 19.4465 18.5804 19.6307 18.354 19.6307Z" fill="white"/>
<path d="M20.5511 19.6307C20.3247 19.6307 20.1403 19.4465 20.1403 19.2199C20.1403 18.9933 20.3247 18.809 20.5511 18.809C20.7776 18.809 20.962 18.9933 20.962 19.2199C20.962 19.4465 20.7776 19.6307 20.5511 19.6307Z" fill="white"/>
<path d="M22.7481 19.6307C22.5217 19.6307 22.3374 19.4465 22.3374 19.2199C22.3374 18.9933 22.5217 18.809 22.7481 18.809C22.9747 18.809 23.159 18.9933 23.159 19.2199C23.159 19.4465 22.9747 19.6307 22.7481 19.6307Z" fill="white"/>
<path d="M24.9454 19.6307C24.7188 19.6307 24.5345 19.4465 24.5345 19.2199C24.5345 18.9933 24.7188 18.809 24.9454 18.809C25.172 18.809 25.3562 18.9933 25.3562 19.2199C25.3562 19.4465 25.172 19.6307 24.9454 19.6307Z" fill="white"/>
<path d="M27.1423 19.6307C26.9158 19.6307 26.7314 19.4465 26.7314 19.2199C26.7314 18.9933 26.9158 18.809 27.1423 18.809C27.3689 18.809 27.5533 18.9933 27.5533 19.2199C27.5533 19.4465 27.3689 19.6307 27.1423 19.6307Z" fill="white"/>
<path d="M19.4652 5.05353C19.2639 5.05353 19.1002 4.88984 19.1002 4.68838C19.1002 4.48706 19.2639 4.32324 19.4652 4.32324C19.6666 4.32324 19.8304 4.48706 19.8304 4.68838C19.8304 4.88984 19.6666 5.05353 19.4652 5.05353Z" fill="white"/>
<path d="M21.6923 5.05353C21.491 5.05353 21.3271 4.88984 21.3271 4.68838C21.3271 4.48706 21.491 4.32324 21.6923 4.32324C21.8936 4.32324 22.0574 4.48706 22.0574 4.68838C22.0574 4.88984 21.8936 5.05353 21.6923 5.05353Z" fill="white"/>
<path d="M23.9192 5.05353C23.7179 5.05353 23.5542 4.88984 23.5542 4.68838C23.5542 4.48706 23.7179 4.32324 23.9192 4.32324C24.1204 4.32324 24.2842 4.48706 24.2842 4.68838C24.2842 4.88984 24.1204 5.05353 23.9192 5.05353Z" fill="white"/>
<path d="M26.1461 5.05353C25.9449 5.05353 25.7811 4.88984 25.7811 4.68838C25.7811 4.48706 25.9449 4.32324 26.1461 4.32324C26.3475 4.32324 26.5113 4.48706 26.5113 4.68838C26.5113 4.88984 26.3475 5.05353 26.1461 5.05353Z" fill="white"/>
<path d="M28.3732 5.05353C28.1719 5.05353 28.0081 4.88984 28.0081 4.68838C28.0081 4.48706 28.1719 4.32324 28.3732 4.32324C28.5745 4.32324 28.7383 4.48706 28.7383 4.68838C28.7383 4.88984 28.5745 5.05353 28.3732 5.05353Z" fill="white"/>
<path d="M19.4652 20.7632C19.2639 20.7632 19.1002 20.5994 19.1002 20.3981C19.1002 20.1968 19.2639 20.0331 19.4652 20.0331C19.6666 20.0331 19.8304 20.1968 19.8304 20.3981C19.8304 20.5994 19.6666 20.7632 19.4652 20.7632Z" fill="white"/>
<path d="M21.7209 20.7632C21.5195 20.7632 21.3557 20.5994 21.3557 20.3981C21.3557 20.1968 21.5195 20.0331 21.7209 20.0331C21.922 20.0331 22.0859 20.1968 22.0859 20.3981C22.0859 20.5994 21.922 20.7632 21.7209 20.7632Z" fill="white"/>
<path d="M23.9766 20.7632C23.7753 20.7632 23.6115 20.5994 23.6115 20.3981C23.6115 20.1968 23.7753 20.0331 23.9766 20.0331C24.1779 20.0331 24.3417 20.1968 24.3417 20.3981C24.3417 20.5994 24.1779 20.7632 23.9766 20.7632Z" fill="white"/>
<path d="M26.2322 20.7632C26.0309 20.7632 25.8671 20.5994 25.8671 20.3981C25.8671 20.1968 26.0309 20.0331 26.2322 20.0331C26.4335 20.0331 26.5974 20.1968 26.5974 20.3981C26.5974 20.5994 26.4335 20.7632 26.2322 20.7632Z" fill="white"/>
<path d="M28.4878 20.7632C28.2864 20.7632 28.1227 20.5994 28.1227 20.3981C28.1227 20.1968 28.2864 20.0331 28.4878 20.0331C28.689 20.0331 28.8528 20.1968 28.8528 20.3981C28.8528 20.5994 28.689 20.7632 28.4878 20.7632Z" fill="white"/>
<path d="M20.6129 3.84546C20.445 3.84546 20.3082 3.70873 20.3082 3.54061C20.3082 3.37262 20.445 3.23589 20.6129 3.23589C20.7811 3.23589 20.9178 3.37262 20.9178 3.54061C20.9178 3.70873 20.7811 3.84546 20.6129 3.84546Z" fill="white"/>
<path d="M20.5511 21.7755C20.3829 21.7755 20.2462 21.6388 20.2462 21.4707C20.2462 21.3027 20.3829 21.1659 20.5511 21.1659C20.7191 21.1659 20.8558 21.3027 20.8558 21.4707C20.8558 21.6388 20.7191 21.7755 20.5511 21.7755Z" fill="white"/>
<path d="M22.8391 21.7755C22.671 21.7755 22.5344 21.6388 22.5344 21.4707C22.5344 21.3027 22.671 21.1659 22.8391 21.1659C23.0073 21.1659 23.144 21.3027 23.144 21.4707C23.144 21.6388 23.0073 21.7755 22.8391 21.7755Z" fill="white"/>
<path d="M25.0317 21.7755C24.8635 21.7755 24.7269 21.6388 24.7269 21.4707C24.7269 21.3027 24.8635 21.1659 25.0317 21.1659C25.1996 21.1659 25.3365 21.3027 25.3365 21.4707C25.3365 21.6388 25.1996 21.7755 25.0317 21.7755Z" fill="white"/>
<path d="M27.2485 21.7755C27.0805 21.7755 26.9436 21.6388 26.9436 21.4707C26.9436 21.3027 27.0805 21.1659 27.2485 21.1659C27.4164 21.1659 27.5533 21.3027 27.5533 21.4707C27.5533 21.6388 27.4164 21.7755 27.2485 21.7755Z" fill="white"/>
<path d="M29.5122 21.7755C29.3441 21.7755 29.2074 21.6388 29.2074 21.4707C29.2074 21.3027 29.3441 21.1659 29.5122 21.1659C29.6804 21.1659 29.817 21.3027 29.817 21.4707C29.817 21.6388 29.6804 21.7755 29.5122 21.7755Z" fill="white"/>
<path d="M22.8309 3.84546C22.6627 3.84546 22.526 3.70873 22.526 3.54061C22.526 3.37262 22.6627 3.23589 22.8309 3.23589C22.9988 3.23589 23.1356 3.37262 23.1356 3.54061C23.1356 3.70873 22.9988 3.84546 22.8309 3.84546Z" fill="white"/>
<path d="M25.0487 3.84546C24.8806 3.84546 24.7439 3.70873 24.7439 3.54061C24.7439 3.37262 24.8806 3.23589 25.0487 3.23589C25.2167 3.23589 25.3535 3.37262 25.3535 3.54061C25.3535 3.70873 25.2167 3.84546 25.0487 3.84546Z" fill="white"/>
<path d="M27.2664 3.84546C27.0984 3.84546 26.9617 3.70873 26.9617 3.54061C26.9617 3.37262 27.0984 3.23589 27.2664 3.23589C27.4346 3.23589 27.5712 3.37262 27.5712 3.54061C27.5712 3.70873 27.4346 3.84546 27.2664 3.84546Z" fill="white"/>
<path d="M29.4843 3.84546C29.3162 3.84546 29.1794 3.70873 29.1794 3.54061C29.1794 3.37262 29.3162 3.23589 29.4843 3.23589C29.6524 3.23589 29.7891 3.37262 29.7891 3.54061C29.7891 3.70873 29.6524 3.84546 29.4843 3.84546Z" fill="white"/>
<path d="M21.6922 2.73413C21.5418 2.73413 21.4194 2.61185 21.4194 2.46145C21.4194 2.31104 21.5418 2.18863 21.6922 2.18863C21.8427 2.18863 21.9651 2.31104 21.9651 2.46145C21.9651 2.61185 21.8427 2.73413 21.6922 2.73413Z" fill="white"/>
<path d="M21.6922 22.93C21.5418 22.93 21.4194 22.8076 21.4194 22.6572C21.4194 22.5069 21.5418 22.3845 21.6922 22.3845C21.8427 22.3845 21.9651 22.5069 21.9651 22.6572C21.9651 22.8076 21.8427 22.93 21.6922 22.93Z" fill="white"/>
<path d="M23.9272 22.93C23.7768 22.93 23.6544 22.8076 23.6544 22.6572C23.6544 22.5069 23.7768 22.3845 23.9272 22.3845C24.0776 22.3845 24.2 22.5069 24.2 22.6572C24.2 22.8076 24.0776 22.93 23.9272 22.93Z" fill="white"/>
<path d="M26.1622 22.93C26.0118 22.93 25.8894 22.8076 25.8894 22.6572C25.8894 22.5069 26.0118 22.3845 26.1622 22.3845C26.3126 22.3845 26.435 22.5069 26.435 22.6572C26.435 22.8076 26.3126 22.93 26.1622 22.93Z" fill="white"/>
<path d="M28.3972 22.93C28.2469 22.93 28.1245 22.8076 28.1245 22.6572C28.1245 22.5069 28.2469 22.3845 28.3972 22.3845C28.5476 22.3845 28.67 22.5069 28.67 22.6572C28.67 22.8076 28.5476 22.93 28.3972 22.93Z" fill="white"/>
<path d="M30.6322 22.93C30.4819 22.93 30.3595 22.8076 30.3595 22.6572C30.3595 22.5069 30.4819 22.3845 30.6322 22.3845C30.7826 22.3845 30.905 22.5069 30.905 22.6572C30.905 22.8076 30.7826 22.93 30.6322 22.93Z" fill="white"/>
<path d="M23.9098 2.73413C23.7595 2.73413 23.6371 2.61185 23.6371 2.46145C23.6371 2.31104 23.7595 2.18863 23.9098 2.18863C24.0602 2.18863 24.1826 2.31104 24.1826 2.46145C24.1826 2.61185 24.0602 2.73413 23.9098 2.73413Z" fill="white"/>
<path d="M26.1277 2.73413C25.9773 2.73413 25.855 2.61185 25.855 2.46145C25.855 2.31104 25.9773 2.18863 26.1277 2.18863C26.2781 2.18863 26.4003 2.31104 26.4003 2.46145C26.4003 2.61185 26.2781 2.73413 26.1277 2.73413Z" fill="white"/>
<path d="M28.3453 2.73413C28.1948 2.73413 28.0725 2.61185 28.0725 2.46145C28.0725 2.31104 28.1948 2.18863 28.3453 2.18863C28.4957 2.18863 28.618 2.31104 28.618 2.46145C28.618 2.61185 28.4957 2.73413 28.3453 2.73413Z" fill="white"/>
<path d="M30.563 2.73413C30.4126 2.73413 30.2902 2.61185 30.2902 2.46145C30.2902 2.31104 30.4126 2.18863 30.563 2.18863C30.7134 2.18863 30.8358 2.31104 30.8358 2.46145C30.8358 2.61185 30.7134 2.73413 30.563 2.73413Z" fill="white"/>
<path d="M22.8309 1.56134C22.6992 1.56134 22.5922 1.45443 22.5922 1.32277C22.5922 1.19125 22.6992 1.08421 22.8309 1.08421C22.9624 1.08421 23.0693 1.19125 23.0693 1.32277C23.0693 1.45443 22.9624 1.56134 22.8309 1.56134Z" fill="white"/>
<path d="M22.8309 24.0104C22.6992 24.0104 22.5922 23.9034 22.5922 23.7719C22.5922 23.6403 22.6992 23.5333 22.8309 23.5333C22.9624 23.5333 23.0693 23.6403 23.0693 23.7719C23.0693 23.9034 22.9624 24.0104 22.8309 24.0104Z" fill="white"/>
<path d="M25.0317 24.0104C24.9001 24.0104 24.7931 23.9034 24.7931 23.7719C24.7931 23.6403 24.9001 23.5333 25.0317 23.5333C25.1632 23.5333 25.2701 23.6403 25.2701 23.7719C25.2701 23.9034 25.1632 24.0104 25.0317 24.0104Z" fill="white"/>
<path d="M27.2326 24.0104C27.1009 24.0104 26.994 23.9034 26.994 23.7719C26.994 23.6403 27.1009 23.5333 27.2326 23.5333C27.3641 23.5333 27.471 23.6403 27.471 23.7719C27.471 23.9034 27.3641 24.0104 27.2326 24.0104Z" fill="white"/>
<path d="M29.4331 24.0104C29.3016 24.0104 29.1947 23.9034 29.1947 23.7719C29.1947 23.6403 29.3016 23.5333 29.4331 23.5333C29.5648 23.5333 29.6717 23.6403 29.6717 23.7719C29.6717 23.9034 29.5648 24.0104 29.4331 24.0104Z" fill="white"/>
<path d="M31.6341 24.0104C31.5026 24.0104 31.3955 23.9034 31.3955 23.7719C31.3955 23.6403 31.5026 23.5333 31.6341 23.5333C31.7656 23.5333 31.8728 23.6403 31.8728 23.7719C31.8728 23.9034 31.7656 24.0104 31.6341 24.0104Z" fill="white"/>
<path d="M25.0488 1.56134C24.9171 1.56134 24.8101 1.45443 24.8101 1.32277C24.8101 1.19125 24.9171 1.08421 25.0488 1.08421C25.1803 1.08421 25.2872 1.19125 25.2872 1.32277C25.2872 1.45443 25.1803 1.56134 25.0488 1.56134Z" fill="white"/>
<path d="M27.2664 1.56134C27.135 1.56134 27.028 1.45443 27.028 1.32277C27.028 1.19125 27.135 1.08421 27.2664 1.08421C27.398 1.08421 27.5051 1.19125 27.5051 1.32277C27.5051 1.45443 27.398 1.56134 27.2664 1.56134Z" fill="white"/>
<path d="M29.4843 1.56134C29.3528 1.56134 29.2458 1.45443 29.2458 1.32277C29.2458 1.19125 29.3528 1.08421 29.4843 1.08421C29.6158 1.08421 29.7229 1.19125 29.7229 1.32277C29.7229 1.45443 29.6158 1.56134 29.4843 1.56134Z" fill="white"/>
<path d="M31.7022 1.56134C31.5705 1.56134 31.4636 1.45443 31.4636 1.32277C31.4636 1.19125 31.5705 1.08421 31.7022 1.08421C31.8338 1.08421 31.9408 1.19125 31.9408 1.32277C31.9408 1.45443 31.8338 1.56134 31.7022 1.56134Z" fill="white"/>
<path d="M23.9273 0.477173C23.7956 0.477173 23.6887 0.370129 23.6887 0.238605C23.6887 0.107081 23.7956 3.76557e-05 23.9273 3.76557e-05C24.0588 3.76557e-05 24.1657 0.107081 24.1657 0.238605C24.1657 0.370129 24.0588 0.477173 23.9273 0.477173Z" fill="white"/>
<path d="M23.9273 25.1383C23.7956 25.1383 23.6887 25.0311 23.6887 24.8997C23.6887 24.7681 23.7956 24.6612 23.9273 24.6612C24.0588 24.6612 24.1657 24.7681 24.1657 24.8997C24.1657 25.0311 24.0588 25.1383 23.9273 25.1383Z" fill="white"/>
<path d="M26.1623 25.1383C26.0306 25.1383 25.9237 25.0311 25.9237 24.8997C25.9237 24.7681 26.0306 24.6612 26.1623 24.6612C26.2938 24.6612 26.4008 24.7681 26.4008 24.8997C26.4008 25.0311 26.2938 25.1383 26.1623 25.1383Z" fill="white"/>
<path d="M28.3973 25.1383C28.2657 25.1383 28.1587 25.0311 28.1587 24.8997C28.1587 24.7681 28.2657 24.6612 28.3973 24.6612C28.5289 24.6612 28.6358 24.7681 28.6358 24.8997C28.6358 25.0311 28.5289 25.1383 28.3973 25.1383Z" fill="white"/>
<path d="M30.6322 25.1383C30.5007 25.1383 30.3938 25.0311 30.3938 24.8997C30.3938 24.7681 30.5007 24.6612 30.6322 24.6612C30.7639 24.6612 30.8708 24.7681 30.8708 24.8997C30.8708 25.0311 30.7639 25.1383 30.6322 25.1383Z" fill="white"/>
<path d="M32.8672 25.1383C32.7357 25.1383 32.6288 25.0311 32.6288 24.8997C32.6288 24.7681 32.7357 24.6612 32.8672 24.6612C32.9989 24.6612 33.1058 24.7681 33.1058 24.8997C33.1058 25.0311 32.9989 25.1383 32.8672 25.1383Z" fill="white"/>
<path d="M26.1276 0.477173C25.9961 0.477173 25.889 0.370129 25.889 0.238605C25.889 0.107081 25.9961 3.76557e-05 26.1276 3.76557e-05C26.2591 3.76557e-05 26.366 0.107081 26.366 0.238605C26.366 0.370129 26.2591 0.477173 26.1276 0.477173Z" fill="white"/>
<path d="M28.328 0.477173C28.1965 0.477173 28.0895 0.370129 28.0895 0.238605C28.0895 0.107081 28.1965 3.76557e-05 28.328 3.76557e-05C28.4597 3.76557e-05 28.5666 0.107081 28.5666 0.238605C28.5666 0.370129 28.4597 0.477173 28.328 0.477173Z" fill="white"/>
<path d="M30.5282 0.477173C30.3968 0.477173 30.2898 0.370129 30.2898 0.238605C30.2898 0.107081 30.3968 3.76557e-05 30.5282 3.76557e-05C30.6599 3.76557e-05 30.7669 0.107081 30.7669 0.238605C30.7669 0.370129 30.6599 0.477173 30.5282 0.477173Z" fill="white"/>
<path d="M32.7287 0.477173C32.5971 0.477173 32.4902 0.370129 32.4902 0.238605C32.4902 0.107081 32.5971 3.76557e-05 32.7287 3.76557e-05C32.8603 3.76557e-05 32.9672 0.107081 32.9672 0.238605C32.9672 0.370129 32.8603 0.477173 32.7287 0.477173Z" fill="white"/>
<path d="M16.059 17.5818C15.7649 17.5818 15.5254 17.3423 15.5254 17.0483C15.5254 16.754 15.7649 16.5145 16.059 16.5145C16.3533 16.5145 16.5927 16.754 16.5927 17.0483C16.5927 17.3423 16.3533 17.5818 16.059 17.5818Z" fill="white"/>
<path d="M18.2631 17.5818C17.9688 17.5818 17.7295 17.3423 17.7295 17.0483C17.7295 16.754 17.9688 16.5145 18.2631 16.5145C18.5574 16.5145 18.7967 16.754 18.7967 17.0483C18.7967 17.3423 18.5574 17.5818 18.2631 17.5818Z" fill="white"/>
<path d="M20.5511 17.5818C20.2568 17.5818 20.0175 17.3423 20.0175 17.0483C20.0175 16.754 20.2568 16.5145 20.5511 16.5145C20.8454 16.5145 21.0848 16.754 21.0848 17.0483C21.0848 17.3423 20.8454 17.5818 20.5511 17.5818Z" fill="white"/>
<path d="M22.8391 17.5818C22.5449 17.5818 22.3055 17.3423 22.3055 17.0483C22.3055 16.754 22.5449 16.5145 22.8391 16.5145C23.1334 16.5145 23.3726 16.754 23.3726 17.0483C23.3726 17.3423 23.1334 17.5818 22.8391 17.5818Z" fill="white"/>
<path d="M25.1273 17.5818C24.833 17.5818 24.5935 17.3423 24.5935 17.0483C24.5935 16.754 24.833 16.5145 25.1273 16.5145C25.4215 16.5145 25.6608 16.754 25.6608 17.0483C25.6608 17.3423 25.4215 17.5818 25.1273 17.5818Z" fill="white"/>
<path d="M14.9726 16.4789C14.6783 16.4789 14.439 16.2396 14.439 15.9453C14.439 15.651 14.6783 15.4116 14.9726 15.4116C15.2669 15.4116 15.5063 15.651 15.5063 15.9453C15.5063 16.2396 15.2669 16.4789 14.9726 16.4789Z" fill="white"/>
<path d="M13.8696 15.3987C13.5486 15.3987 13.2874 15.1376 13.2874 14.8167C13.2874 14.4957 13.5486 14.2344 13.8696 14.2344C14.1904 14.2344 14.4517 14.4957 14.4517 14.8167C14.4517 15.1376 14.1904 15.3987 13.8696 15.3987Z" fill="white"/>
<path d="M14.9727 14.2537C14.6517 14.2537 14.3906 13.9926 14.3906 13.6716C14.3906 13.3506 14.6517 13.0893 14.9727 13.0893C15.2937 13.0893 15.5548 13.3506 15.5548 13.6716C15.5548 13.9926 15.2937 14.2537 14.9727 14.2537Z" fill="white"/>
<path d="M17.1467 14.2537C16.8256 14.2537 16.5645 13.9926 16.5645 13.6716C16.5645 13.3506 16.8256 13.0893 17.1467 13.0893C17.4675 13.0893 17.7286 13.3506 17.7286 13.6716C17.7286 13.9926 17.4675 14.2537 17.1467 14.2537Z" fill="white"/>
<path d="M19.3543 14.2537C19.0333 14.2537 18.7721 13.9926 18.7721 13.6716C18.7721 13.3506 19.0333 13.0893 19.3543 13.0893C19.6753 13.0893 19.9363 13.3506 19.9363 13.6716C19.9363 13.9926 19.6753 14.2537 19.3543 14.2537Z" fill="white"/>
<path d="M21.5523 14.2537C21.2313 14.2537 20.9702 13.9926 20.9702 13.6716C20.9702 13.3506 21.2313 13.0893 21.5523 13.0893C21.8732 13.0893 22.1344 13.3506 22.1344 13.6716C22.1344 13.9926 21.8732 14.2537 21.5523 14.2537Z" fill="white"/>
<path d="M14.9727 11.9748C14.6517 11.9748 14.3906 11.7136 14.3906 11.3927C14.3906 11.0717 14.6517 10.8105 14.9727 10.8105C15.2937 10.8105 15.5548 11.0717 15.5548 11.3927C15.5548 11.7136 15.2937 11.9748 14.9727 11.9748Z" fill="white"/>
<path d="M17.1951 11.9748C16.8741 11.9748 16.6129 11.7136 16.6129 11.3927C16.6129 11.0717 16.8741 10.8105 17.1951 10.8105C17.516 10.8105 17.7771 11.0717 17.7771 11.3927C17.7771 11.7136 17.516 11.9748 17.1951 11.9748Z" fill="white"/>
<path d="M19.3543 11.9748C19.0333 11.9748 18.7721 11.7136 18.7721 11.3927C18.7721 11.0717 19.0333 10.8105 19.3543 10.8105C19.6753 10.8105 19.9363 11.0717 19.9363 11.3927C19.9363 11.7136 19.6753 11.9748 19.3543 11.9748Z" fill="white"/>
<path d="M21.6734 11.9748C21.3523 11.9748 21.0913 11.7136 21.0913 11.3927C21.0913 11.0717 21.3523 10.8105 21.6734 10.8105C21.9944 10.8105 22.2556 11.0717 22.2556 11.3927C22.2556 11.7136 21.9944 11.9748 21.6734 11.9748Z" fill="white"/>
<path d="M16.0589 10.8242C15.7379 10.8242 15.4768 10.5631 15.4768 10.2421C15.4768 9.92107 15.7379 9.65997 16.0589 9.65997C16.3799 9.65997 16.641 9.92107 16.641 10.2421C16.641 10.5631 16.3799 10.8242 16.0589 10.8242Z" fill="white"/>
<path d="M18.2631 10.8242C17.9421 10.8242 17.6809 10.5631 17.6809 10.2421C17.6809 9.92107 17.9421 9.65997 18.2631 9.65997C18.5841 9.65997 18.8454 9.92107 18.8454 10.2421C18.8454 10.5631 18.5841 10.8242 18.2631 10.8242Z" fill="white"/>
<path d="M20.4533 10.8242C20.1323 10.8242 19.8711 10.5631 19.8711 10.2421C19.8711 9.92107 20.1323 9.65997 20.4533 9.65997C20.7743 9.65997 21.0354 9.92107 21.0354 10.2421C21.0354 10.5631 20.7743 10.8242 20.4533 10.8242Z" fill="white"/>
<path d="M22.6746 10.8242C22.3536 10.8242 22.0925 10.5631 22.0925 10.2421C22.0925 9.92107 22.3536 9.65997 22.6746 9.65997C22.9956 9.65997 23.2567 9.92107 23.2567 10.2421C23.2567 10.5631 22.9956 10.8242 22.6746 10.8242Z" fill="white"/>
<path d="M17.1951 9.67261C16.9008 9.67261 16.6615 9.43313 16.6615 9.13883C16.6615 8.84466 16.9008 8.60531 17.1951 8.60531C17.4893 8.60531 17.7287 8.84466 17.7287 9.13883C17.7287 9.43313 17.4893 9.67261 17.1951 9.67261Z" fill="white"/>
<path d="M19.4652 9.67261C19.1709 9.67261 18.9316 9.43313 18.9316 9.13883C18.9316 8.84466 19.1709 8.60531 19.4652 8.60531C19.7595 8.60531 19.9988 8.84466 19.9988 9.13883C19.9988 9.43313 19.7595 9.67261 19.4652 9.67261Z" fill="white"/>
<path d="M21.5524 9.67261C21.2581 9.67261 21.0188 9.43313 21.0188 9.13883C21.0188 8.84466 21.2581 8.60531 21.5524 8.60531C21.8466 8.60531 22.086 8.84466 22.086 9.13883C22.086 9.43313 21.8466 9.67261 21.5524 9.67261Z" fill="white"/>
<path d="M23.7943 9.67261C23.5001 9.67261 23.2606 9.43313 23.2606 9.13883C23.2606 8.84466 23.5001 8.60531 23.7943 8.60531C24.0884 8.60531 24.3279 8.84466 24.3279 9.13883C24.3279 9.43313 24.0884 9.67261 23.7943 9.67261Z" fill="white"/>
<path d="M17.1951 16.4789C16.9008 16.4789 16.6615 16.2396 16.6615 15.9453C16.6615 15.651 16.9008 15.4116 17.1951 15.4116C17.4893 15.4116 17.7287 15.651 17.7287 15.9453C17.7287 16.2396 17.4893 16.4789 17.1951 16.4789Z" fill="white"/>
<path d="M19.4028 16.4789C19.1085 16.4789 18.8691 16.2396 18.8691 15.9453C18.8691 15.651 19.1085 15.4116 19.4028 15.4116C19.697 15.4116 19.9363 15.651 19.9363 15.9453C19.9363 16.2396 19.697 16.4789 19.4028 16.4789Z" fill="white"/>
<path d="M21.5524 16.4789C21.2581 16.4789 21.0188 16.2396 21.0188 15.9453C21.0188 15.651 21.2581 15.4116 21.5524 15.4116C21.8466 15.4116 22.086 15.651 22.086 15.9453C22.086 16.2396 21.8466 16.4789 21.5524 16.4789Z" fill="white"/>
<path d="M23.7943 16.4789C23.5001 16.4789 23.2606 16.2396 23.2606 15.9453C23.2606 15.651 23.5001 15.4116 23.7943 15.4116C24.0884 15.4116 24.3279 15.651 24.3279 15.9453C24.3279 16.2396 24.0884 16.4789 23.7943 16.4789Z" fill="white"/>
<path d="M16.0589 15.3987C15.7379 15.3987 15.4768 15.1376 15.4768 14.8167C15.4768 14.4957 15.7379 14.2344 16.0589 14.2344C16.3799 14.2344 16.641 14.4957 16.641 14.8167C16.641 15.1376 16.3799 15.3987 16.0589 15.3987Z" fill="white"/>
<path d="M18.2631 15.3987C17.9421 15.3987 17.6809 15.1376 17.6809 14.8167C17.6809 14.4957 17.9421 14.2344 18.2631 14.2344C18.5841 14.2344 18.8454 14.4957 18.8454 14.8167C18.8454 15.1376 18.5841 15.3987 18.2631 15.3987Z" fill="white"/>
<path d="M20.5511 15.3987C20.23 15.3987 19.9689 15.1376 19.9689 14.8167C19.9689 14.4957 20.23 14.2344 20.5511 14.2344C20.8721 14.2344 21.1332 14.4957 21.1332 14.8167C21.1332 15.1376 20.8721 15.3987 20.5511 15.3987Z" fill="white"/>
<path d="M22.6746 15.3987C22.3536 15.3987 22.0925 15.1376 22.0925 14.8167C22.0925 14.4957 22.3536 14.2344 22.6746 14.2344C22.9956 14.2344 23.2567 14.4957 23.2567 14.8167C23.2567 15.1376 22.9956 15.3987 22.6746 15.3987Z" fill="white"/>
<path d="M12.719 14.2942C12.3756 14.2942 12.0964 14.0149 12.0964 13.6716C12.0964 13.3283 12.3756 13.049 12.719 13.049C13.0622 13.049 13.3415 13.3283 13.3415 13.6716C13.3415 14.0149 13.0622 14.2942 12.719 14.2942Z" fill="white"/>
<path d="M0 24.7997L10.8683 13.9134L15.6822 18.4566L9.08207 24.7997H0Z" fill="white"/>
<path d="M0 0.027222L10.8683 10.9134L15.6822 6.37033L9.08207 0.027222H0Z" fill="white"/>
<path d="M63.056 17.6545L61.964 18.0965V4.26447H65.422V21.0865H61.964L48.366 7.80046L49.458 7.35847V21.0865H46V4.26447H49.458L63.056 17.6545Z" fill="white"/>
<path d="M71.958 14.0665V18.2005H84.932V21.0865H68.5V4.26447H84.906V7.15047H71.958V11.3365H82.566V14.0665H71.958Z" fill="white"/>
<path d="M99.6097 5.00176C99.9896 4.53525 100.559 4.26447 101.161 4.26447H104.422L96.466 13.5465L96.362 13.6505L90.46 21.0865H86.248L94.438 11.3365L94.516 11.2585L99.6097 5.00176ZM89.7565 4.26447C90.3654 4.26447 90.941 4.54179 91.3205 5.01789L96.336 11.3105L96.388 11.3885L104.5 21.0865H100.106L94.282 13.5465L94.204 13.4945L86.508 4.26447H89.7565Z" fill="white"/>
<path d="M105.5 4.26447H123.232V7.15047H105.5V4.26447ZM112.65 6.78647H116.108V21.0865H112.65V6.78647Z" fill="white"/>
<path d="M124.186 17.4205V14.5345H135.314V17.4205H124.186ZM120 21.0865L127.904 4.26447H131.648L139.63 21.0865H135.86L128.944 5.92847H130.608L123.744 21.0865H120Z" fill="white"/>
</svg>