<svg viewBox="0 0 31 24" fill="none" xmlns="http://www.w3.org/2000/svg">
<path d="M10.6643 12.5918C10.319 12.5918 10.0381 12.3108 10.0381 11.9656C10.0381 11.6203 10.319 11.3393 10.6643 11.3393C11.0097 11.3393 11.2905 11.6203 11.2905 11.9656C11.2905 12.3108 11.0097 12.5918 10.6643 12.5918Z" fill="#191B1E"/>
<path d="M12.6844 12.5918C12.339 12.5918 12.0581 12.3108 12.0581 11.9656C12.0581 11.6203 12.339 11.3393 12.6844 11.3393C13.0296 11.3393 13.3106 11.6203 13.3106 11.9656C13.3106 12.3108 13.0296 12.5918 12.6844 12.5918Z" fill="#191B1E"/>
<path d="M14.7907 12.5918C14.4454 12.5918 14.1646 12.3108 14.1646 11.9656C14.1646 11.6203 14.4454 11.3393 14.7907 11.3393C15.136 11.3393 15.417 11.6203 15.417 11.9656C15.417 12.3108 15.136 12.5918 14.7907 12.5918Z" fill="#191B1E"/>
<path d="M16.82 12.5918C16.4747 12.5918 16.1938 12.3108 16.1938 11.9656C16.1938 11.6203 16.4747 11.3393 16.82 11.3393C17.1654 11.3393 17.4462 11.6203 17.4462 11.9656C17.4462 12.3108 17.1654 12.5918 16.82 12.5918Z" fill="#191B1E"/>
<path d="M18.8372 12.5918C18.4918 12.5918 18.2109 12.3108 18.2109 11.9656C18.2109 11.6203 18.4918 11.3393 18.8372 11.3393C19.1825 11.3393 19.4634 11.6203 19.4634 11.9656C19.4634 12.3108 19.1825 12.5918 18.8372 12.5918Z" fill="#191B1E"/>
<path d="M11.7136 11.4897C11.3973 11.4897 11.1401 11.2325 11.1401 10.9165C11.1401 10.6002 11.3973 10.343 11.7136 10.343C12.0296 10.343 12.2868 10.6002 12.2868 10.9165C12.2868 11.2325 12.0296 11.4897 11.7136 11.4897Z" fill="#191B1E"/>
<path d="M12.773 10.3931C12.4774 10.3931 12.2368 10.1526 12.2368 9.85695C12.2368 9.56131 12.4774 9.32084 12.773 9.32084C13.0686 9.32084 13.3092 9.56131 13.3092 9.85695C13.3092 10.1526 13.0686 10.3931 12.773 10.3931Z" fill="#191B1E"/>
<path d="M13.7903 9.33228C13.5193 9.33228 13.2988 9.11171 13.2988 8.84066C13.2988 8.56972 13.5193 8.34928 13.7903 8.34928C14.0614 8.34928 14.2818 8.56972 14.2818 8.84066C14.2818 9.11171 14.0614 9.33228 13.7903 9.33228Z" fill="#191B1E"/>
<path d="M14.7898 8.29785C14.5189 8.29785 14.2983 8.07753 14.2983 7.80647C14.2983 7.53554 14.5189 7.31498 14.7898 7.31498C15.0609 7.31498 15.2813 7.53554 15.2813 7.80647C15.2813 8.07753 15.0609 8.29785 14.7898 8.29785Z" fill="#191B1E"/>
<path d="M16.8191 8.29785C16.5481 8.29785 16.3276 8.07753 16.3276 7.80647C16.3276 7.53554 16.5481 7.31498 16.8191 7.31498C17.0902 7.31498 17.3105 7.53554 17.3105 7.80647C17.3105 8.07753 17.0902 8.29785 16.8191 8.29785Z" fill="#191B1E"/>
<path d="M18.9285 8.29785C18.6575 8.29785 18.437 8.07753 18.437 7.80647C18.437 7.53554 18.6575 7.31498 18.9285 7.31498C19.1996 7.31498 19.42 7.53554 19.42 7.80647C19.42 8.07753 19.1996 8.29785 18.9285 8.29785Z" fill="#191B1E"/>
<path d="M20.8831 8.29785C20.612 8.29785 20.3916 8.07753 20.3916 7.80647C20.3916 7.53554 20.612 7.31498 20.8831 7.31498C21.1542 7.31498 21.3745 7.53554 21.3745 7.80647C21.3745 8.07753 21.1542 8.29785 20.8831 8.29785Z" fill="#191B1E"/>
<path d="M22.9808 8.29785C22.7098 8.29785 22.4893 8.07753 22.4893 7.80647C22.4893 7.53554 22.7098 7.31498 22.9808 7.31498C23.2518 7.31498 23.4723 7.53554 23.4723 7.80647C23.4723 8.07753 23.2518 8.29785 22.9808 8.29785Z" fill="#191B1E"/>
<path d="M15.8372 7.26147C15.5877 7.26147 15.3848 7.05854 15.3848 6.80908C15.3848 6.55961 15.5877 6.35668 15.8372 6.35668C16.0866 6.35668 16.2896 6.55961 16.2896 6.80908C16.2896 7.05854 16.0866 7.26147 15.8372 7.26147Z" fill="#191B1E"/>
<path d="M17.929 7.26147C17.6795 7.26147 17.4766 7.05854 17.4766 6.80908C17.4766 6.55961 17.6795 6.35668 17.929 6.35668C18.1784 6.35668 18.3815 6.55961 18.3815 6.80908C18.3815 7.05854 18.1784 7.26147 17.929 7.26147Z" fill="#191B1E"/>
<path d="M19.9304 7.26147C19.681 7.26147 19.478 7.05854 19.478 6.80908C19.478 6.55961 19.681 6.35668 19.9304 6.35668C20.18 6.35668 20.3828 6.55961 20.3828 6.80908C20.3828 7.05854 20.18 7.26147 19.9304 7.26147Z" fill="#191B1E"/>
<path d="M22.0206 7.26147C21.7713 7.26147 21.5684 7.05854 21.5684 6.80908C21.5684 6.55961 21.7713 6.35668 22.0206 6.35668C22.2701 6.35668 22.4732 6.55961 22.4732 6.80908C22.4732 7.05854 22.2701 7.26147 22.0206 7.26147Z" fill="#191B1E"/>
<path d="M24.1121 7.26147C23.8627 7.26147 23.6597 7.05854 23.6597 6.80908C23.6597 6.55961 23.8627 6.35668 24.1121 6.35668C24.3615 6.35668 24.5645 6.55961 24.5645 6.80908C24.5645 7.05854 24.3615 7.26147 24.1121 7.26147Z" fill="#191B1E"/>
<path d="M15.8372 17.573C15.5877 17.573 15.3848 17.3701 15.3848 17.1206C15.3848 16.8711 15.5877 16.6681 15.8372 16.6681C16.0866 16.6681 16.2896 16.8711 16.2896 17.1206C16.2896 17.3701 16.0866 17.573 15.8372 17.573Z" fill="#191B1E"/>
<path d="M17.8699 17.573C17.6204 17.573 17.4175 17.3701 17.4175 17.1206C17.4175 16.8711 17.6204 16.6681 17.8699 16.6681C18.1192 16.6681 18.3222 16.8711 18.3222 17.1206C18.3222 17.3701 18.1192 17.573 17.8699 17.573Z" fill="#191B1E"/>
<path d="M19.9042 17.573C19.6547 17.573 19.4517 17.3701 19.4517 17.1206C19.4517 16.8711 19.6547 16.6681 19.9042 16.6681C20.1536 16.6681 20.3565 16.8711 20.3565 17.1206C20.3565 17.3701 20.1536 17.573 19.9042 17.573Z" fill="#191B1E"/>
<path d="M21.9368 17.573C21.6873 17.573 21.4844 17.3701 21.4844 17.1206C21.4844 16.8711 21.6873 16.6681 21.9368 16.6681C22.1861 16.6681 22.3892 16.8711 22.3892 17.1206C22.3892 17.3701 22.1861 17.573 21.9368 17.573Z" fill="#191B1E"/>
<path d="M23.9708 17.573C23.7215 17.573 23.5186 17.3701 23.5186 17.1206C23.5186 16.8711 23.7215 16.6681 23.9708 16.6681C24.2203 16.6681 24.4234 16.8711 24.4234 17.1206C24.4234 17.3701 24.2203 17.573 23.9708 17.573Z" fill="#191B1E"/>
<path d="M16.9038 6.14355C16.6952 6.14355 16.5254 5.97373 16.5254 5.76504C16.5254 5.55647 16.6952 5.38676 16.9038 5.38676C17.1124 5.38676 17.2822 5.55647 17.2822 5.76504C17.2822 5.97373 17.1124 6.14355 16.9038 6.14355Z" fill="#191B1E"/>
<path d="M18.9277 6.14355C18.7191 6.14355 18.5493 5.97373 18.5493 5.76504C18.5493 5.55647 18.7191 5.38676 18.9277 5.38676C19.1363 5.38676 19.3061 5.55647 19.3061 5.76504C19.3061 5.97373 19.1363 6.14355 18.9277 6.14355Z" fill="#191B1E"/>
<path d="M20.9515 6.14355C20.743 6.14355 20.5732 5.97373 20.5732 5.76504C20.5732 5.55647 20.743 5.38676 20.9515 5.38676C21.1602 5.38676 21.3299 5.55647 21.3299 5.76504C21.3299 5.97373 21.1602 6.14355 20.9515 6.14355Z" fill="#191B1E"/>
<path d="M22.9756 6.14355C22.7669 6.14355 22.5972 5.97373 22.5972 5.76504C22.5972 5.55647 22.7669 5.38676 22.9756 5.38676C23.1843 5.38676 23.354 5.55647 23.354 5.76504C23.354 5.97373 23.1843 6.14355 22.9756 6.14355Z" fill="#191B1E"/>
<path d="M24.9995 6.14355C24.7909 6.14355 24.6211 5.97373 24.6211 5.76504C24.6211 5.55647 24.7909 5.38676 24.9995 5.38676C25.2082 5.38676 25.378 5.55647 25.378 5.76504C25.378 5.97373 25.2082 6.14355 24.9995 6.14355Z" fill="#191B1E"/>
<path d="M16.9038 18.5037C16.6952 18.5037 16.5254 18.334 16.5254 18.1253C16.5254 17.9166 16.6952 17.7469 16.9038 17.7469C17.1124 17.7469 17.2822 17.9166 17.2822 18.1253C17.2822 18.334 17.1124 18.5037 16.9038 18.5037Z" fill="#191B1E"/>
<path d="M18.9277 18.5037C18.7191 18.5037 18.5493 18.334 18.5493 18.1253C18.5493 17.9166 18.7191 17.7469 18.9277 17.7469C19.1363 17.7469 19.3061 17.9166 19.3061 18.1253C19.3061 18.334 19.1363 18.5037 18.9277 18.5037Z" fill="#191B1E"/>
<path d="M20.9515 18.5037C20.743 18.5037 20.5732 18.334 20.5732 18.1253C20.5732 17.9166 20.743 17.7469 20.9515 17.7469C21.1602 17.7469 21.3299 17.9166 21.3299 18.1253C21.3299 18.334 21.1602 18.5037 20.9515 18.5037Z" fill="#191B1E"/>
<path d="M22.9756 18.5037C22.7669 18.5037 22.5972 18.334 22.5972 18.1253C22.5972 17.9166 22.7669 17.7469 22.9756 17.7469C23.1843 17.7469 23.354 17.9166 23.354 18.1253C23.354 18.334 23.1843 18.5037 22.9756 18.5037Z" fill="#191B1E"/>
<path d="M24.9995 18.5037C24.7909 18.5037 24.6211 18.334 24.6211 18.1253C24.6211 17.9166 24.7909 17.7469 24.9995 17.7469C25.2082 17.7469 25.378 17.9166 25.378 18.1253C25.378 18.334 25.2082 18.5037 24.9995 18.5037Z" fill="#191B1E"/>
<path d="M17.9275 5.07812C17.7421 5.07812 17.5913 4.92736 17.5913 4.74182C17.5913 4.5564 17.7421 4.40552 17.9275 4.40552C18.1129 4.40552 18.2638 4.5564 18.2638 4.74182C18.2638 4.92736 18.1129 5.07812 17.9275 5.07812Z" fill="#191B1E"/>
<path d="M19.9779 5.07812C19.7925 5.07812 19.6416 4.92736 19.6416 4.74182C19.6416 4.5564 19.7925 4.40552 19.9779 4.40552C20.1633 4.40552 20.3142 4.5564 20.3142 4.74182C20.3142 4.92736 20.1633 5.07812 19.9779 5.07812Z" fill="#191B1E"/>
<path d="M22.0286 5.07812C21.8431 5.07812 21.6924 4.92736 21.6924 4.74182C21.6924 4.5564 21.8431 4.40552 22.0286 4.40552C22.2139 4.40552 22.3647 4.5564 22.3647 4.74182C22.3647 4.92736 22.2139 5.07812 22.0286 5.07812Z" fill="#191B1E"/>
<path d="M24.0803 5.07812C23.895 5.07812 23.7441 4.92736 23.7441 4.74182C23.7441 4.5564 23.895 4.40552 24.0803 4.40552C24.2657 4.40552 24.4166 4.5564 24.4166 4.74182C24.4166 4.92736 24.2657 5.07812 24.0803 5.07812Z" fill="#191B1E"/>
<path d="M26.1327 5.07812C25.9473 5.07812 25.7964 4.92736 25.7964 4.74182C25.7964 4.5564 25.9473 4.40552 26.1327 4.40552C26.3181 4.40552 26.469 4.5564 26.469 4.74182C26.469 4.92736 26.3181 5.07812 26.1327 5.07812Z" fill="#191B1E"/>
<path d="M17.9275 19.5466C17.7421 19.5466 17.5913 19.3958 17.5913 19.2103C17.5913 19.0249 17.7421 18.8742 17.9275 18.8742C18.1129 18.8742 18.2638 19.0249 18.2638 19.2103C18.2638 19.3958 18.1129 19.5466 17.9275 19.5466Z" fill="#191B1E"/>
<path d="M20.0052 19.5466C19.8198 19.5466 19.6689 19.3958 19.6689 19.2103C19.6689 19.0249 19.8198 18.8742 20.0052 18.8742C20.1905 18.8742 20.3414 19.0249 20.3414 19.2103C20.3414 19.3958 20.1905 19.5466 20.0052 19.5466Z" fill="#191B1E"/>
<path d="M22.0824 19.5466C21.897 19.5466 21.7461 19.3958 21.7461 19.2103C21.7461 19.0249 21.897 18.8742 22.0824 18.8742C22.2678 18.8742 22.4187 19.0249 22.4187 19.2103C22.4187 19.3958 22.2678 19.5466 22.0824 19.5466Z" fill="#191B1E"/>
<path d="M24.16 19.5466C23.9746 19.5466 23.8237 19.3958 23.8237 19.2103C23.8237 19.0249 23.9746 18.8742 24.16 18.8742C24.3455 18.8742 24.4963 19.0249 24.4963 19.2103C24.4963 19.3958 24.3455 19.5466 24.16 19.5466Z" fill="#191B1E"/>
<path d="M26.2372 19.5466C26.0516 19.5466 25.9009 19.3958 25.9009 19.2103C25.9009 19.0249 26.0516 18.8742 26.2372 18.8742C26.4225 18.8742 26.5734 19.0249 26.5734 19.2103C26.5734 19.3958 26.4225 19.5466 26.2372 19.5466Z" fill="#191B1E"/>
<path d="M18.9843 3.96533C18.8295 3.96533 18.7036 3.8394 18.7036 3.68456C18.7036 3.52985 18.8295 3.40391 18.9843 3.40391C19.1391 3.40391 19.265 3.52985 19.265 3.68456C19.265 3.8394 19.1391 3.96533 18.9843 3.96533Z" fill="#191B1E"/>
<path d="M18.9268 20.4792C18.7719 20.4792 18.646 20.3534 18.646 20.1986C18.646 20.0439 18.7719 19.9178 18.9268 19.9178C19.0815 19.9178 19.2074 20.0439 19.2074 20.1986C19.2074 20.3534 19.0815 20.4792 18.9268 20.4792Z" fill="#191B1E"/>
<path d="M21.035 20.4792C20.8802 20.4792 20.7544 20.3534 20.7544 20.1986C20.7544 20.0439 20.8802 19.9178 21.035 19.9178C21.1899 19.9178 21.3158 20.0439 21.3158 20.1986C21.3158 20.3534 21.1899 20.4792 21.035 20.4792Z" fill="#191B1E"/>
<path d="M23.0551 20.4792C22.9002 20.4792 22.7744 20.3534 22.7744 20.1986C22.7744 20.0439 22.9002 19.9178 23.0551 19.9178C23.2098 19.9178 23.3358 20.0439 23.3358 20.1986C23.3358 20.3534 23.2098 20.4792 23.0551 20.4792Z" fill="#191B1E"/>
<path d="M25.0952 20.4792C24.9405 20.4792 24.8145 20.3534 24.8145 20.1986C24.8145 20.0439 24.9405 19.9178 25.0952 19.9178C25.2499 19.9178 25.376 20.0439 25.376 20.1986C25.376 20.3534 25.2499 20.4792 25.0952 20.4792Z" fill="#191B1E"/>
<path d="M27.1802 20.4792C27.0253 20.4792 26.8994 20.3534 26.8994 20.1986C26.8994 20.0439 27.0253 19.9178 27.1802 19.9178C27.335 19.9178 27.4608 20.0439 27.4608 20.1986C27.4608 20.3534 27.335 20.4792 27.1802 20.4792Z" fill="#191B1E"/>
<path d="M21.0274 3.96533C20.8725 3.96533 20.7466 3.8394 20.7466 3.68456C20.7466 3.52985 20.8725 3.40391 21.0274 3.40391C21.1821 3.40391 21.308 3.52985 21.308 3.68456C21.308 3.8394 21.1821 3.96533 21.0274 3.96533Z" fill="#191B1E"/>
<path d="M23.0703 3.96533C22.9155 3.96533 22.7896 3.8394 22.7896 3.68456C22.7896 3.52985 22.9155 3.40391 23.0703 3.40391C23.225 3.40391 23.351 3.52985 23.351 3.68456C23.351 3.8394 23.225 3.96533 23.0703 3.96533Z" fill="#191B1E"/>
<path d="M25.1112 3.96533C24.9565 3.96533 24.8306 3.8394 24.8306 3.68456C24.8306 3.52985 24.9565 3.40391 25.1112 3.40391C25.2662 3.40391 25.392 3.52985 25.392 3.68456C25.392 3.8394 25.2662 3.96533 25.1112 3.96533Z" fill="#191B1E"/>
<path d="M27.1558 3.96533C27.0009 3.96533 26.875 3.8394 26.875 3.68456C26.875 3.52985 27.0009 3.40391 27.1558 3.40391C27.3106 3.40391 27.4365 3.52985 27.4365 3.68456C27.4365 3.8394 27.3106 3.96533 27.1558 3.96533Z" fill="#191B1E"/>
<path d="M19.9778 2.94165C19.8393 2.94165 19.7266 2.82903 19.7266 2.69051C19.7266 2.55198 19.8393 2.43924 19.9778 2.43924C20.1164 2.43924 20.2291 2.55198 20.2291 2.69051C20.2291 2.82903 20.1164 2.94165 19.9778 2.94165Z" fill="#191B1E"/>
<path d="M19.9778 21.5422C19.8393 21.5422 19.7266 21.4295 19.7266 21.291C19.7266 21.1526 19.8393 21.0398 19.9778 21.0398C20.1164 21.0398 20.2291 21.1526 20.2291 21.291C20.2291 21.4295 20.1164 21.5422 19.9778 21.5422Z" fill="#191B1E"/>
<path d="M22.0369 21.5422C21.8984 21.5422 21.7856 21.4295 21.7856 21.291C21.7856 21.1526 21.8984 21.0398 22.0369 21.0398C22.1754 21.0398 22.2882 21.1526 22.2882 21.291C22.2882 21.4295 22.1754 21.5422 22.0369 21.5422Z" fill="#191B1E"/>
<path d="M24.0945 21.5422C23.956 21.5422 23.8433 21.4295 23.8433 21.291C23.8433 21.1526 23.956 21.0398 24.0945 21.0398C24.2331 21.0398 24.3458 21.1526 24.3458 21.291C24.3458 21.4295 24.2331 21.5422 24.0945 21.5422Z" fill="#191B1E"/>
<path d="M26.1545 21.5422C26.0161 21.5422 25.9033 21.4295 25.9033 21.291C25.9033 21.1526 26.0161 21.0398 26.1545 21.0398C26.293 21.0398 26.4057 21.1526 26.4057 21.291C26.4057 21.4295 26.293 21.5422 26.1545 21.5422Z" fill="#191B1E"/>
<path d="M28.2126 21.5422C28.0742 21.5422 27.9614 21.4295 27.9614 21.291C27.9614 21.1526 28.0742 21.0398 28.2126 21.0398C28.3511 21.0398 28.4638 21.1526 28.4638 21.291C28.4638 21.4295 28.3511 21.5422 28.2126 21.5422Z" fill="#191B1E"/>
<path d="M22.0212 2.94165C21.8828 2.94165 21.77 2.82903 21.77 2.69051C21.77 2.55198 21.8828 2.43924 22.0212 2.43924C22.1597 2.43924 22.2724 2.55198 22.2724 2.69051C22.2724 2.82903 22.1597 2.94165 22.0212 2.94165Z" fill="#191B1E"/>
<path d="M24.0632 2.94165C23.9246 2.94165 23.812 2.82903 23.812 2.69051C23.812 2.55198 23.9246 2.43924 24.0632 2.43924C24.2017 2.43924 24.3143 2.55198 24.3143 2.69051C24.3143 2.82903 24.2017 2.94165 24.0632 2.94165Z" fill="#191B1E"/>
<path d="M26.1062 2.94165C25.9676 2.94165 25.855 2.82903 25.855 2.69051C25.855 2.55198 25.9676 2.43924 26.1062 2.43924C26.2448 2.43924 26.3574 2.55198 26.3574 2.69051C26.3574 2.82903 26.2448 2.94165 26.1062 2.94165Z" fill="#191B1E"/>
<path d="M28.1478 2.94165C28.0092 2.94165 27.8965 2.82903 27.8965 2.69051C27.8965 2.55198 28.0092 2.43924 28.1478 2.43924C28.2863 2.43924 28.399 2.55198 28.399 2.69051C28.399 2.82903 28.2863 2.94165 28.1478 2.94165Z" fill="#191B1E"/>
<path d="M21.027 1.86182C20.9057 1.86182 20.8071 1.76335 20.8071 1.64209C20.8071 1.52096 20.9057 1.42237 21.027 1.42237C21.1481 1.42237 21.2466 1.52096 21.2466 1.64209C21.2466 1.76335 21.1481 1.86182 21.027 1.86182Z" fill="#191B1E"/>
<path d="M21.027 22.5369C20.9057 22.5369 20.8071 22.4383 20.8071 22.3171C20.8071 22.196 20.9057 22.0974 21.027 22.0974C21.1481 22.0974 21.2466 22.196 21.2466 22.3171C21.2466 22.4383 21.1481 22.5369 21.027 22.5369Z" fill="#191B1E"/>
<path d="M23.0542 22.5369C22.9331 22.5369 22.8345 22.4383 22.8345 22.3171C22.8345 22.196 22.9331 22.0974 23.0542 22.0974C23.1753 22.0974 23.2738 22.196 23.2738 22.3171C23.2738 22.4383 23.1753 22.5369 23.0542 22.5369Z" fill="#191B1E"/>
<path d="M25.0815 22.5369C24.9603 22.5369 24.8618 22.4383 24.8618 22.3171C24.8618 22.196 24.9603 22.0974 25.0815 22.0974C25.2027 22.0974 25.3011 22.196 25.3011 22.3171C25.3011 22.4383 25.2027 22.5369 25.0815 22.5369Z" fill="#191B1E"/>
<path d="M27.1078 22.5369C26.9867 22.5369 26.8882 22.4383 26.8882 22.3171C26.8882 22.196 26.9867 22.0974 27.1078 22.0974C27.229 22.0974 27.3275 22.196 27.3275 22.3171C27.3275 22.4383 27.229 22.5369 27.1078 22.5369Z" fill="#191B1E"/>
<path d="M29.1343 22.5369C29.0131 22.5369 28.9146 22.4383 28.9146 22.3171C28.9146 22.196 29.0131 22.0974 29.1343 22.0974C29.2554 22.0974 29.3541 22.196 29.3541 22.3171C29.3541 22.4383 29.2554 22.5369 29.1343 22.5369Z" fill="#191B1E"/>
<path d="M23.0704 1.86182C22.9492 1.86182 22.8506 1.76335 22.8506 1.64209C22.8506 1.52096 22.9492 1.42237 23.0704 1.42237C23.1916 1.42237 23.29 1.52096 23.29 1.64209C23.29 1.76335 23.1916 1.86182 23.0704 1.86182Z" fill="#191B1E"/>
<path d="M25.1112 1.86182C24.9902 1.86182 24.8916 1.76335 24.8916 1.64209C24.8916 1.52096 24.9902 1.42237 25.1112 1.42237C25.2325 1.42237 25.331 1.52096 25.331 1.64209C25.331 1.76335 25.2325 1.86182 25.1112 1.86182Z" fill="#191B1E"/>
<path d="M27.1552 1.86182C27.034 1.86182 26.9355 1.76335 26.9355 1.64209C26.9355 1.52096 27.034 1.42237 27.1552 1.42237C27.2763 1.42237 27.3749 1.52096 27.3749 1.64209C27.3749 1.76335 27.2763 1.86182 27.1552 1.86182Z" fill="#191B1E"/>
<path d="M29.1973 1.86182C29.076 1.86182 28.9775 1.76335 28.9775 1.64209C28.9775 1.52096 29.076 1.42237 29.1973 1.42237C29.3185 1.42237 29.417 1.52096 29.417 1.64209C29.417 1.76335 29.3185 1.86182 29.1973 1.86182Z" fill="#191B1E"/>
<path d="M22.0366 0.862793C21.9154 0.862793 21.8169 0.764205 21.8169 0.643069C21.8169 0.521934 21.9154 0.423346 22.0366 0.423346C22.1578 0.423346 22.2562 0.521934 22.2562 0.643069C22.2562 0.764205 22.1578 0.862793 22.0366 0.862793Z" fill="#191B1E"/>
<path d="M22.0366 23.5764C21.9154 23.5764 21.8169 23.4777 21.8169 23.3567C21.8169 23.2354 21.9154 23.137 22.0366 23.137C22.1578 23.137 22.2562 23.2354 22.2562 23.3567C22.2562 23.4777 22.1578 23.5764 22.0366 23.5764Z" fill="#191B1E"/>
<path d="M24.0962 23.5764C23.9749 23.5764 23.8765 23.4777 23.8765 23.3567C23.8765 23.2354 23.9749 23.137 24.0962 23.137C24.2173 23.137 24.3159 23.2354 24.3159 23.3567C24.3159 23.4777 24.2173 23.5764 24.0962 23.5764Z" fill="#191B1E"/>
<path d="M26.1538 23.5764C26.0327 23.5764 25.9341 23.4777 25.9341 23.3567C25.9341 23.2354 26.0327 23.137 26.1538 23.137C26.2751 23.137 26.3735 23.2354 26.3735 23.3567C26.3735 23.4777 26.2751 23.5764 26.1538 23.5764Z" fill="#191B1E"/>
<path d="M28.2118 23.5764C28.0907 23.5764 27.9922 23.4777 27.9922 23.3567C27.9922 23.2354 28.0907 23.137 28.2118 23.137C28.333 23.137 28.4315 23.2354 28.4315 23.3567C28.4315 23.4777 28.333 23.5764 28.2118 23.5764Z" fill="#191B1E"/>
<path d="M30.2714 23.5764C30.1502 23.5764 30.0518 23.4777 30.0518 23.3567C30.0518 23.2354 30.1502 23.137 30.2714 23.137C30.3926 23.137 30.4911 23.2354 30.4911 23.3567C30.4911 23.4777 30.3926 23.5764 30.2714 23.5764Z" fill="#191B1E"/>
<path d="M24.063 0.862793C23.9418 0.862793 23.8433 0.764205 23.8433 0.643069C23.8433 0.521934 23.9418 0.423346 24.063 0.423346C24.1841 0.423346 24.2826 0.521934 24.2826 0.643069C24.2826 0.764205 24.1841 0.862793 24.063 0.862793Z" fill="#191B1E"/>
<path d="M26.0898 0.862793C25.9687 0.862793 25.8701 0.764205 25.8701 0.643069C25.8701 0.521934 25.9687 0.423346 26.0898 0.423346C26.2111 0.423346 26.3096 0.521934 26.3096 0.643069C26.3096 0.764205 26.2111 0.862793 26.0898 0.862793Z" fill="#191B1E"/>
<path d="M28.1161 0.862793C27.9951 0.862793 27.8965 0.764205 27.8965 0.643069C27.8965 0.521934 27.9951 0.423346 28.1161 0.423346C28.2373 0.423346 28.3359 0.521934 28.3359 0.643069C28.3359 0.764205 28.2373 0.862793 28.1161 0.862793Z" fill="#191B1E"/>
<path d="M30.1429 0.862793C30.0218 0.862793 29.9233 0.764205 29.9233 0.643069C29.9233 0.521934 30.0218 0.423346 30.1429 0.423346C30.2642 0.423346 30.3627 0.521934 30.3627 0.643069C30.3627 0.764205 30.2642 0.862793 30.1429 0.862793Z" fill="#191B1E"/>
<path d="M14.7898 16.6162C14.5189 16.6162 14.2983 16.3956 14.2983 16.1248C14.2983 15.8538 14.5189 15.6332 14.7898 15.6332C15.0609 15.6332 15.2813 15.8538 15.2813 16.1248C15.2813 16.3956 15.0609 16.6162 14.7898 16.6162Z" fill="#191B1E"/>
<path d="M16.8191 16.6162C16.5481 16.6162 16.3276 16.3956 16.3276 16.1248C16.3276 15.8538 16.5481 15.6332 16.8191 15.6332C17.0902 15.6332 17.3105 15.8538 17.3105 16.1248C17.3105 16.3956 17.0902 16.6162 16.8191 16.6162Z" fill="#191B1E"/>
<path d="M18.9285 16.6162C18.6575 16.6162 18.437 16.3956 18.437 16.1248C18.437 15.8538 18.6575 15.6332 18.9285 15.6332C19.1996 15.6332 19.42 15.8538 19.42 16.1248C19.42 16.3956 19.1996 16.6162 18.9285 16.6162Z" fill="#191B1E"/>
<path d="M21.0358 16.6162C20.7649 16.6162 20.5444 16.3956 20.5444 16.1248C20.5444 15.8538 20.7649 15.6332 21.0358 15.6332C21.3069 15.6332 21.5272 15.8538 21.5272 16.1248C21.5272 16.3956 21.3069 16.6162 21.0358 16.6162Z" fill="#191B1E"/>
<path d="M23.1425 16.6162C22.8714 16.6162 22.6509 16.3956 22.6509 16.1248C22.6509 15.8538 22.8714 15.6332 23.1425 15.6332C23.4134 15.6332 23.6339 15.8538 23.6339 16.1248C23.6339 16.3956 23.4134 16.6162 23.1425 16.6162Z" fill="#191B1E"/>
<path d="M13.7903 15.6016C13.5193 15.6016 13.2988 15.3811 13.2988 15.1101C13.2988 14.839 13.5193 14.6186 13.7903 14.6186C14.0614 14.6186 14.2818 14.839 14.2818 15.1101C14.2818 15.3811 14.0614 15.6016 13.7903 15.6016Z" fill="#191B1E"/>
<path d="M12.773 14.606C12.4774 14.606 12.2368 14.3655 12.2368 14.0698C12.2368 13.7742 12.4774 13.5336 12.773 13.5336C13.0686 13.5336 13.3092 13.7742 13.3092 14.0698C13.3092 14.3655 13.0686 14.606 12.773 14.606Z" fill="#191B1E"/>
<path d="M13.7895 13.551C13.4939 13.551 13.2534 13.3106 13.2534 13.0149C13.2534 12.7193 13.4939 12.4787 13.7895 12.4787C14.0852 12.4787 14.3256 12.7193 14.3256 13.0149C14.3256 13.3106 14.0852 13.551 13.7895 13.551Z" fill="#191B1E"/>
<path d="M15.7911 13.551C15.4954 13.551 15.2549 13.3106 15.2549 13.0149C15.2549 12.7193 15.4954 12.4787 15.7911 12.4787C16.0866 12.4787 16.3271 12.7193 16.3271 13.0149C16.3271 13.3106 16.0866 13.551 15.7911 13.551Z" fill="#191B1E"/>
<path d="M17.8248 13.551C17.5292 13.551 17.2886 13.3106 17.2886 13.0149C17.2886 12.7193 17.5292 12.4787 17.8248 12.4787C18.1204 12.4787 18.3608 12.7193 18.3608 13.0149C18.3608 13.3106 18.1204 13.551 17.8248 13.551Z" fill="#191B1E"/>
<path d="M19.8496 13.551C19.5539 13.551 19.3135 13.3106 19.3135 13.0149C19.3135 12.7193 19.5539 12.4787 19.8496 12.4787C20.1451 12.4787 20.3857 12.7193 20.3857 13.0149C20.3857 13.3106 20.1451 13.551 19.8496 13.551Z" fill="#191B1E"/>
<path d="M13.7895 11.4521C13.4939 11.4521 13.2534 11.2116 13.2534 10.916C13.2534 10.6204 13.4939 10.3798 13.7895 10.3798C14.0852 10.3798 14.3256 10.6204 14.3256 10.916C14.3256 11.2116 14.0852 11.4521 13.7895 11.4521Z" fill="#191B1E"/>
<path d="M15.836 11.4521C15.5404 11.4521 15.2998 11.2116 15.2998 10.916C15.2998 10.6204 15.5404 10.3798 15.836 10.3798C16.1316 10.3798 16.372 10.6204 16.372 10.916C16.372 11.2116 16.1316 11.4521 15.836 11.4521Z" fill="#191B1E"/>
<path d="M17.8248 11.4521C17.5292 11.4521 17.2886 11.2116 17.2886 10.916C17.2886 10.6204 17.5292 10.3798 17.8248 10.3798C18.1204 10.3798 18.3608 10.6204 18.3608 10.916C18.3608 11.2116 18.1204 11.4521 17.8248 11.4521Z" fill="#191B1E"/>
<path d="M19.9614 11.4521C19.6656 11.4521 19.4253 11.2116 19.4253 10.916C19.4253 10.6204 19.6656 10.3798 19.9614 10.3798C20.257 10.3798 20.4976 10.6204 20.4976 10.916C20.4976 11.2116 20.257 11.4521 19.9614 11.4521Z" fill="#191B1E"/>
<path d="M14.7905 10.3931C14.4949 10.3931 14.2544 10.1526 14.2544 9.85695C14.2544 9.56131 14.4949 9.32084 14.7905 9.32084C15.0862 9.32084 15.3266 9.56131 15.3266 9.85695C15.3266 10.1526 15.0862 10.3931 14.7905 10.3931Z" fill="#191B1E"/>
<path d="M16.8194 10.3931C16.5238 10.3931 16.2832 10.1526 16.2832 9.85695C16.2832 9.56131 16.5238 9.32084 16.8194 9.32084C17.1151 9.32084 17.3557 9.56131 17.3557 9.85695C17.3557 10.1526 17.1151 10.3931 16.8194 10.3931Z" fill="#191B1E"/>
<path d="M18.837 10.3931C18.5414 10.3931 18.3008 10.1526 18.3008 9.85695C18.3008 9.56131 18.5414 9.32084 18.837 9.32084C19.1327 9.32084 19.3731 9.56131 19.3731 9.85695C19.3731 10.1526 19.1327 10.3931 18.837 10.3931Z" fill="#191B1E"/>
<path d="M20.8833 10.3931C20.5876 10.3931 20.3472 10.1526 20.3472 9.85695C20.3472 9.56131 20.5876 9.32084 20.8833 9.32084C21.1789 9.32084 21.4194 9.56131 21.4194 9.85695C21.4194 10.1526 21.1789 10.3931 20.8833 10.3931Z" fill="#191B1E"/>
<path d="M15.8367 9.33228C15.5657 9.33228 15.3452 9.11171 15.3452 8.84066C15.3452 8.56972 15.5657 8.34928 15.8367 8.34928C16.1076 8.34928 16.3281 8.56972 16.3281 8.84066C16.3281 9.11171 16.1076 9.33228 15.8367 9.33228Z" fill="#191B1E"/>
<path d="M17.9279 9.33228C17.6568 9.33228 17.4365 9.11171 17.4365 8.84066C17.4365 8.56972 17.6568 8.34928 17.9279 8.34928C18.199 8.34928 18.4194 8.56972 18.4194 8.84066C18.4194 9.11171 18.199 9.33228 17.9279 9.33228Z" fill="#191B1E"/>
<path d="M19.8489 9.33228C19.5779 9.33228 19.3574 9.11171 19.3574 8.84066C19.3574 8.56972 19.5779 8.34928 19.8489 8.34928C20.1199 8.34928 20.3403 8.56972 20.3403 8.84066C20.3403 9.11171 20.1199 9.33228 19.8489 9.33228Z" fill="#191B1E"/>
<path d="M21.9148 9.33228C21.6439 9.33228 21.4233 9.11171 21.4233 8.84066C21.4233 8.56972 21.6439 8.34928 21.9148 8.34928C22.1858 8.34928 22.4063 8.56972 22.4063 8.84066C22.4063 9.11171 22.1858 9.33228 21.9148 9.33228Z" fill="#191B1E"/>
<path d="M15.8367 15.6016C15.5657 15.6016 15.3452 15.3811 15.3452 15.1101C15.3452 14.839 15.5657 14.6186 15.8367 14.6186C16.1076 14.6186 16.3281 14.839 16.3281 15.1101C16.3281 15.3811 16.1076 15.6016 15.8367 15.6016Z" fill="#191B1E"/>
<path d="M17.8699 15.6016C17.5989 15.6016 17.3784 15.3811 17.3784 15.1101C17.3784 14.839 17.5989 14.6186 17.8699 14.6186C18.1409 14.6186 18.3613 14.839 18.3613 15.1101C18.3613 15.3811 18.1409 15.6016 17.8699 15.6016Z" fill="#191B1E"/>
<path d="M19.8489 15.6016C19.5779 15.6016 19.3574 15.3811 19.3574 15.1101C19.3574 14.839 19.5779 14.6186 19.8489 14.6186C20.1199 14.6186 20.3403 14.839 20.3403 15.1101C20.3403 15.3811 20.1199 15.6016 19.8489 15.6016Z" fill="#191B1E"/>
<path d="M21.9148 15.6016C21.6439 15.6016 21.4233 15.3811 21.4233 15.1101C21.4233 14.839 21.6439 14.6186 21.9148 14.6186C22.1858 14.6186 22.4063 14.839 22.4063 15.1101C22.4063 15.3811 22.1858 15.6016 21.9148 15.6016Z" fill="#191B1E"/>
<path d="M14.7905 14.606C14.4949 14.606 14.2544 14.3655 14.2544 14.0698C14.2544 13.7742 14.4949 13.5336 14.7905 13.5336C15.0862 13.5336 15.3266 13.7742 15.3266 14.0698C15.3266 14.3655 15.0862 14.606 14.7905 14.606Z" fill="#191B1E"/>
<path d="M16.8194 14.606C16.5238 14.606 16.2832 14.3655 16.2832 14.0698C16.2832 13.7742 16.5238 13.5336 16.8194 13.5336C17.1151 13.5336 17.3557 13.7742 17.3557 14.0698C17.3557 14.3655 17.1151 14.606 16.8194 14.606Z" fill="#191B1E"/>
<path d="M18.9273 14.606C18.6316 14.606 18.3911 14.3655 18.3911 14.0698C18.3911 13.7742 18.6316 13.5336 18.9273 13.5336C19.223 13.5336 19.4635 13.7742 19.4635 14.0698C19.4635 14.3655 19.223 14.606 18.9273 14.606Z" fill="#191B1E"/>
<path d="M20.8833 14.606C20.5876 14.606 20.3472 14.3655 20.3472 14.0698C20.3472 13.7742 20.5876 13.5336 20.8833 13.5336C21.1789 13.5336 21.4194 13.7742 21.4194 14.0698C21.4194 14.3655 21.1789 14.606 20.8833 14.606Z" fill="#191B1E"/>
<path d="M11.7136 13.5891C11.3973 13.5891 11.1401 13.3319 11.1401 13.0157C11.1401 12.6995 11.3973 12.4423 11.7136 12.4423C12.0296 12.4423 12.2868 12.6995 12.2868 13.0157C12.2868 13.3319 12.0296 13.5891 11.7136 13.5891Z" fill="#191B1E"/>
<path d="M0 23.2642L10.0099 13.2377L14.4435 17.4221L8.3647 23.2642H0Z" fill="#191B1E"/>
<path d="M0 0.449054L10.0099 10.4753L14.4435 6.29113L8.3647 0.449054H0Z" fill="#191B1E"/>
</svg>
