<?xml version="1.0" standalone="no"?>
<!DOCTYPE svg PUBLIC "-//W3C//DTD SVG 20010904//EN"
 "http://www.w3.org/TR/2001/REC-SVG-20010904/DTD/svg10.dtd">
<svg version="1.0" xmlns="http://www.w3.org/2000/svg"
 width="512.000000pt" height="512.000000pt" viewBox="0 0 512.000000 512.000000"
 preserveAspectRatio="xMidYMid meet">
<metadata>
Created by potrace 1.14, written by Peter Selinger 2001-2017
</metadata>
<g transform="translate(0.000000,512.000000) scale(0.100000,-0.100000)"
fill="#000000" stroke="none">
<path d="M0 2560 l0 -2560 2560 0 2560 0 0 2560 0 2560 -2560 0 -2560 0 0
-2560z m3330 1239 c0 -12 -7 -19 -19 -19 -26 0 -36 17 -21 35 15 18 40 8 40
-16z m440 0 c0 -12 -7 -19 -20 -19 -22 0 -29 35 -7 43 18 6 27 -2 27 -24z
m226 -8 c-4 -6 -16 -11 -27 -11 -21 0 -27 35 -6 43 16 6 41 -18 33 -32z m220
0 c-10 -16 -36 -13 -43 5 -8 22 18 37 36 20 7 -8 10 -19 7 -25z m-2090 -267
c170 -163 319 -306 331 -318 l23 -21 -222 -210 c-122 -116 -233 -219 -246
-229 l-24 -19 -170 169 c-93 93 -336 339 -540 547 l-370 377 454 0 455 0 309
-296z m1424 276 c0 -13 -7 -20 -20 -20 -13 0 -20 7 -20 20 0 13 7 20 20 20 13
0 20 -7 20 -20z m-330 -106 c0 -19 -28 -30 -42 -16 -8 8 -8 15 1 26 14 17 41
10 41 -10z m218 -2 c3 -17 -2 -22 -17 -22 -14 0 -21 6 -21 18 0 38 33 41 38 4z
m228 -11 c-10 -16 -36 -13 -43 5 -8 22 18 37 36 20 7 -8 10 -19 7 -25z m224
13 c0 -19 -28 -30 -42 -16 -8 8 -8 15 1 26 14 17 41 10 41 -10z m218 -2 c3
-17 -2 -22 -17 -22 -14 0 -21 6 -21 18 0 38 33 41 38 4z m-1002 -127 c-3 -9
-14 -15 -23 -13 -22 4 -30 38 -11 49 18 11 43 -15 34 -36z m222 11 c-2 -13
-10 -21 -23 -21 -23 0 -33 34 -14 45 20 13 40 -1 37 -24z m448 -11 c-3 -9 -14
-15 -23 -13 -22 4 -30 38 -11 49 18 11 43 -15 34 -36z m222 11 c-2 -13 -10
-21 -23 -21 -23 0 -33 34 -14 45 20 13 40 -1 37 -24z m-443 5 c0 -8 -8 -19
-17 -25 -22 -13 -44 5 -34 29 7 20 51 16 51 -4z m-556 -99 c12 -22 -3 -42 -30
-42 -22 0 -33 28 -18 46 16 19 36 17 48 -4z m220 4 c15 -18 3 -46 -20 -46 -22
0 -34 22 -25 45 7 19 30 19 45 1z m226 -16 c0 -20 -5 -25 -25 -25 -28 0 -41
32 -18 46 23 15 43 5 43 -21z m220 0 c0 -18 -6 -26 -21 -28 -26 -4 -40 24 -23
45 18 21 44 11 44 -17z m224 16 c15 -18 3 -46 -20 -46 -22 0 -34 22 -25 45 7
19 30 19 45 1z m-1000 -113 c13 -25 -5 -53 -34 -53 -15 0 -26 7 -30 20 -13 41
43 70 64 33z m221 2 c20 -25 8 -50 -25 -50 -31 0 -43 20 -31 51 7 18 40 18 56
-1z m225 -20 c0 -27 -3 -30 -30 -30 -21 0 -31 5 -33 18 -5 25 17 49 42 45 16
-2 21 -10 21 -33z m226 19 c9 -11 10 -20 2 -32 -15 -24 -44 -27 -59 -7 -28 38
27 75 57 39z m219 1 c20 -25 8 -50 -25 -50 -21 0 -31 5 -33 18 -4 21 14 47 33
47 7 0 18 -7 25 -15z m-1000 -110 c29 -35 -26 -85 -58 -53 -13 13 -16 50 -5
61 12 12 50 7 63 -8z m220 0 c15 -18 10 -45 -12 -59 -33 -20 -69 20 -54 60 7
18 50 18 66 -1z m224 -7 c22 -35 -27 -74 -59 -48 -18 15 -20 56 -2 64 22 9 50
1 61 -16z m222 -3 c11 -43 -34 -73 -64 -43 -27 27 -6 68 35 68 16 0 24 -7 29
-25z m219 -9 c0 -36 -27 -56 -52 -40 -40 25 -20 77 26 72 21 -2 26 -8 26 -32z
m-1004 -85 c20 -16 22 -23 14 -47 -9 -24 -16 -29 -45 -29 -29 0 -36 5 -45 29
-8 24 -6 31 14 47 13 10 27 19 31 19 4 0 18 -9 31 -19z m229 1 c46 -37 -9
-106 -59 -75 -26 16 -26 59 1 77 28 20 31 20 58 -2z m220 -2 c24 -24 25 -43 4
-64 -48 -49 -113 15 -67 66 21 23 38 23 63 -2z m222 8 c24 -20 28 -44 12 -67
-17 -23 -53 -28 -72 -9 -18 18 -15 65 6 77 23 14 35 13 54 -1z m229 2 c22 -12
26 -59 7 -78 -19 -19 -55 -14 -72 9 -16 23 -12 47 12 67 19 15 28 15 53 2z
m-1007 -116 c9 -8 16 -24 16 -35 0 -23 -34 -59 -55 -59 -20 0 -55 36 -55 57 0
44 63 69 94 37z m220 0 c40 -40 -4 -105 -57 -85 -33 13 -43 45 -23 76 19 29
57 33 80 9z m234 4 c21 -21 14 -66 -12 -83 -49 -33 -103 22 -70 72 16 25 62
31 82 11z m217 -12 c33 -49 -22 -103 -72 -70 -25 16 -31 62 -11 82 21 21 66
14 83 -12z m232 -5 c14 -29 4 -55 -28 -71 -46 -25 -94 51 -57 88 21 21 71 10
85 -17z m-1015 -98 c39 -36 5 -102 -47 -89 -37 9 -52 48 -31 81 19 29 51 32
78 8z m222 1 c26 -25 20 -72 -9 -86 -41 -18 -75 3 -75 46 0 51 50 75 84 40z
m230 0 c32 -31 10 -94 -33 -94 -29 0 -53 25 -53 55 0 48 54 72 86 39z m210 0
c32 -31 10 -94 -33 -94 -29 0 -53 25 -53 55 0 48 54 72 86 39z m231 -4 c15
-16 17 -26 9 -47 -14 -40 -39 -51 -72 -33 -33 19 -40 55 -16 81 22 25 56 24
79 -1z m-997 -102 c7 -7 12 -26 12 -43 0 -39 -16 -55 -55 -55 -37 0 -55 16
-55 48 0 41 18 62 53 62 18 0 38 -5 45 -12z m222 -3 c7 -8 13 -26 13 -40 0
-14 -6 -32 -13 -40 -15 -18 -71 -20 -88 -3 -15 15 -16 53 -2 79 13 23 72 26
90 4z m224 -7 c20 -29 20 -41 -2 -68 -36 -44 -102 -20 -102 36 0 52 74 75 104
32z m222 -3 c14 -21 15 -31 5 -51 -26 -58 -110 -43 -111 20 0 54 76 76 106 31z
m218 9 c35 -34 10 -96 -39 -96 -28 0 -65 31 -65 56 0 46 71 74 104 40z m-1002
-111 c22 -20 24 -66 2 -87 -8 -9 -28 -16 -44 -16 -36 0 -60 23 -60 57 0 55 62
83 102 46z m224 -8 c18 -19 23 -31 19 -48 -9 -27 -33 -47 -59 -47 -52 0 -76
75 -34 104 31 22 45 20 74 -9z m224 5 c11 -11 20 -28 20 -38 0 -29 -29 -62
-56 -62 -29 0 -64 32 -64 60 0 11 9 29 20 40 11 11 29 20 40 20 11 0 29 -9 40
-20z m215 -5 c30 -29 31 -49 5 -75 -24 -24 -57 -26 -82 -3 -24 21 -23 58 2 83
26 26 46 25 75 -5z m235 5 c11 -11 20 -28 20 -38 0 -29 -29 -62 -56 -62 -29 0
-64 32 -64 60 0 11 9 29 20 40 11 11 29 20 40 20 11 0 29 -9 40 -20z m-1008
-107 c41 -37 10 -115 -47 -115 -56 0 -87 72 -48 114 20 22 70 23 95 1z m220 0
c41 -37 10 -115 -47 -115 -56 0 -87 72 -48 114 20 22 70 23 95 1z m231 0 c19
-23 23 -41 14 -75 -7 -28 -43 -46 -77 -39 -47 9 -66 76 -33 113 21 23 75 24
96 1z m229 -14 c25 -34 15 -75 -23 -94 -69 -36 -133 51 -78 106 28 28 76 22
101 -12z m218 4 c37 -47 8 -106 -51 -106 -60 0 -91 71 -49 113 29 29 74 26
100 -7z m-788 -110 c22 -20 24 -66 2 -87 -8 -9 -28 -16 -44 -16 -36 0 -60 23
-60 57 0 55 62 83 102 46z m224 -8 c18 -19 23 -31 19 -48 -9 -27 -33 -47 -59
-47 -52 0 -76 75 -34 104 31 22 45 20 74 -9z m212 9 c42 -29 20 -104 -30 -104
-50 0 -76 64 -41 102 20 22 42 23 71 2z m232 -4 c11 -11 20 -29 20 -40 0 -26
-34 -60 -62 -60 -53 0 -79 74 -36 104 30 21 54 20 78 -4z m220 0 c11 -11 20
-29 20 -40 0 -25 -34 -60 -58 -60 -29 0 -62 29 -62 56 0 29 32 64 60 64 11 0
29 -9 40 -20z m-870 -296 l239 -226 -147 -142 c-81 -78 -230 -222 -332 -319
l-184 -177 -461 0 -460 0 545 545 c300 300 549 545 553 545 4 0 116 -102 247
-226z m91 186 c13 -7 19 -21 19 -44 0 -38 -19 -58 -55 -58 -34 0 -55 19 -55
53 0 49 44 73 91 49z m229 -5 c17 -21 16 -64 -3 -82 -18 -19 -61 -20 -82 -3
-20 16 -19 64 1 84 20 20 68 21 84 1z m226 -10 c19 -29 11 -60 -20 -81 -56
-36 -117 43 -70 90 24 25 71 20 90 -9z m230 0 c19 -29 11 -60 -20 -81 -56 -36
-114 38 -69 88 24 26 69 23 89 -7z m206 8 c50 -45 -11 -126 -68 -89 -31 21
-39 52 -20 81 19 29 60 33 88 8z m-768 -125 c7 -11 7 -26 0 -45 -18 -51 -104
-37 -104 17 0 46 79 68 104 28z m214 10 c7 -7 12 -24 12 -38 0 -33 -17 -50
-50 -50 -33 0 -50 17 -50 50 0 33 17 50 50 50 14 0 31 -5 38 -12z m228 -9 c17
-19 17 -23 3 -47 -16 -30 -61 -41 -85 -21 -17 14 -19 60 -2 77 19 19 63 14 84
-9z m212 9 c7 -7 12 -24 12 -38 0 -34 -17 -50 -52 -50 -18 0 -33 8 -44 25 -15
23 -15 27 0 50 18 27 63 34 84 13z m234 -13 c18 -41 -3 -75 -47 -75 -28 0 -38
5 -47 25 -18 41 3 75 47 75 28 0 38 -5 47 -25z m-788 -101 c33 -32 9 -86 -39
-86 -30 0 -55 24 -55 53 0 25 27 49 55 49 13 0 31 -7 39 -16z m225 2 c19 -23
9 -69 -18 -82 -51 -26 -97 25 -67 71 19 28 66 34 85 11z m230 0 c20 -23 9 -69
-18 -83 -29 -14 -55 -4 -71 28 -26 47 55 96 89 55z m230 0 c20 -23 9 -69 -18
-83 -29 -14 -55 -4 -71 28 -26 47 55 96 89 55z m230 0 c20 -23 9 -69 -18 -83
-29 -14 -55 -4 -71 28 -26 47 55 96 89 55z m-805 -112 c31 -30 9 -84 -34 -84
-24 0 -50 26 -50 50 0 24 26 50 50 50 10 0 26 -7 34 -16z m220 3 c28 -20 18
-69 -16 -81 -22 -8 -32 -6 -48 9 -24 22 -25 42 -3 67 19 21 42 23 67 5z m224
1 c7 -7 12 -24 12 -38 0 -53 -57 -69 -86 -25 -15 23 -15 27 0 50 18 27 54 33
74 13z m227 -8 c15 -17 16 -24 7 -45 -15 -32 -37 -41 -68 -27 -17 8 -24 20
-24 40 0 52 50 71 85 32z m219 4 c21 -20 20 -43 -1 -66 -20 -22 -46 -23 -67
-2 -31 30 -9 84 34 84 10 0 26 -7 34 -16z m-770 -126 c15 -25 -3 -52 -38 -56
-20 -3 -28 2 -35 20 -13 33 4 60 36 56 14 -2 31 -11 37 -20z m214 10 c30 -30
0 -75 -43 -64 -19 5 -25 13 -25 35 0 15 3 31 7 34 11 11 48 8 61 -5z m222 -3
c15 -18 10 -45 -12 -59 -33 -20 -69 20 -54 60 7 18 50 18 66 -1z m218 6 c18
-11 11 -51 -10 -65 -35 -22 -74 27 -48 59 14 17 38 19 58 6z m230 -28 c3 -28
-1 -33 -23 -39 -29 -7 -55 10 -55 35 0 25 22 42 50 39 20 -2 26 -9 28 -35z
m-777 -104 c9 -18 8 -25 -8 -41 -22 -22 -49 -16 -58 13 -14 43 44 67 66 28z
m213 15 c22 -8 20 -51 -2 -63 -37 -20 -70 27 -40 57 14 14 20 14 42 6z m234
-6 c30 -30 -3 -77 -40 -57 -18 9 -25 49 -11 62 10 11 38 8 51 -5z m232 -3 c14
-17 5 -51 -15 -59 -35 -13 -63 21 -45 55 13 23 43 25 60 4z m214 9 c22 -8 20
-51 -2 -63 -37 -20 -70 27 -40 57 14 14 20 14 42 6z m-784 -138 c0 -20 -25
-37 -44 -30 -19 7 -22 50 -3 57 17 6 47 -11 47 -27z m230 0 c0 -20 -25 -37
-44 -30 -19 7 -21 35 -4 52 14 14 48 -2 48 -22z m220 0 c0 -20 -25 -37 -44
-30 -19 7 -21 35 -4 52 14 14 48 -2 48 -22z m220 -1 c0 -27 -26 -40 -46 -24
-19 16 -18 36 3 47 24 14 43 4 43 -23z m218 23 c28 -28 3 -66 -33 -52 -25 10
-12 64 15 64 3 0 11 -5 18 -12z m-783 -143 c0 -23 -34 -33 -45 -14 -13 20 1
40 24 37 13 -2 21 -10 21 -23z m228 13 c7 -21 -4 -38 -23 -38 -23 0 -34 16
-26 35 7 18 43 20 49 3z m222 -13 c0 -23 -34 -33 -45 -14 -13 20 1 40 24 37
13 -2 21 -10 21 -23z m228 13 c7 -21 -4 -38 -23 -38 -23 0 -34 16 -26 35 7 18
43 20 49 3z m222 -13 c0 -23 -34 -33 -45 -14 -13 20 1 40 24 37 13 -2 21 -10
21 -23z m-787 -113 c3 -16 -2 -22 -17 -22 -26 0 -36 17 -20 36 16 19 33 13 37
-14z m220 0 c3 -16 -2 -22 -16 -22 -24 0 -35 23 -19 39 16 16 31 8 35 -17z
m219 17 c16 -16 5 -39 -18 -39 -12 0 -19 7 -19 18 0 31 17 41 37 21z m220 0
c16 -16 5 -39 -18 -39 -12 0 -19 7 -19 18 0 31 17 41 37 21z m222 2 c17 -11 7
-41 -13 -41 -19 0 -29 17 -22 35 6 17 15 18 35 6z m-769 -130 c0 -27 -19 -36
-37 -18 -18 18 -9 37 18 37 12 0 19 -7 19 -19z m225 9 c9 -15 -14 -40 -31 -33
-22 8 -18 43 5 43 11 0 23 -5 26 -10z m225 -9 c0 -27 -19 -36 -37 -18 -18 18
-9 37 18 37 12 0 19 -7 19 -19z m225 9 c9 -15 -14 -40 -31 -33 -22 8 -18 43 5
43 11 0 23 -5 26 -10z m225 -9 c0 -27 -19 -36 -37 -18 -18 18 -9 37 18 37 12
0 19 -7 19 -19z"/>
</g>
</svg>
